<?xml version="1.0" encoding="utf-8"?>
<!-- Generator: Adobe Illustrator 26.3.1, SVG Export Plug-In . SVG Version: 6.00 Build 0)  -->
<svg version="1.1" id="Layer_1" xmlns="http://www.w3.org/2000/svg" xmlns:xlink="http://www.w3.org/1999/xlink" x="0px" y="0px"
	 viewBox="0 0 40 40" style="enable-background:new 0 0 40 40;" xml:space="preserve">
<g>
	<polygon class="st0" points="17.1,23.8 24.8,20 17.1,16.2 	"/>
	<path class="st0" d="M20,0C9,0,0,9,0,20c0,11,9,20,20,20s20-9,20-20C40,9,31,0,20,0z M27.3,28.4c-3.4,0.2-11.1,0.2-14.5,0
		C9,28.2,8.6,25.9,8.5,20c0-5.9,0.5-8.2,4.2-8.4c3.4-0.2,11.1-0.2,14.5,0c3.7,0.3,4.2,2.5,4.2,8.4C31.4,25.9,31,28.2,27.3,28.4z"/>
</g>
</svg>
