<?xml version="1.0" encoding="utf-8"?>
<!-- Generator: Adobe Illustrator 26.3.1, SVG Export Plug-In . SVG Version: 6.00 Build 0)  -->
<svg version="1.1" id="Layer_1" xmlns="http://www.w3.org/2000/svg" xmlns:xlink="http://www.w3.org/1999/xlink" x="0px" y="0px"
	 viewBox="0 0 45 45" style="enable-background:new 0 0 45 45;" xml:space="preserve">
<path class="st0" d="M22.5,0C10.1,0,0,10.1,0,22.5S10.1,45,22.5,45S45,34.9,45,22.5S34.9,0,22.5,0z M12.9,30.7
	c-0.6,0.1-1.1,0.1-1.5,0.2c-0.7,0.1-1.4-0.3-1.8-0.9c-1.3-2.3-2-4.8-2-7.5c0-8.3,6.8-15,15.1-14.9c6.3,0.1,11.8,4.1,13.9,10
	c0.2,0.7,0.1,1.4-0.3,2c-1.5,1.9-3.3,3.5-5.2,4.8v-9c0-0.7-0.6-1.3-1.3-1.3h-2.1h0c-0.7,0-1.3,0.6-1.3,1.3v10.9c0,0.4-0.3,0.8-0.6,1
	c-0.5,0.2-1,0.4-1,0.4v-9.2c0-0.7-0.6-1.3-1.3-1.3h-2.1c-0.7,0-1.3,0.6-1.3,1.3v9.9c0,0.5-0.3,0.9-0.8,1c-0.3,0.1-0.6,0.2-0.9,0.2
	v-8c0-0.7-0.6-1.3-1.3-1.3l-2.1,0c0,0,0,0,0,0c-0.7,0-1.3,0.6-1.3,1.3h0v7.9C13.8,30.2,13.4,30.7,12.9,30.7z M34.6,31.3
	c-4.8,6.7-14.2,8.1-20.8,3.3c0,0,0,0,0,0l0,0c0,0,0,0,0,0c8.1-1.2,18.2-5,23.6-13.1c0,0.3,0,0.7,0,1C37.4,25.6,36.4,28.7,34.6,31.3z
	"/>
</svg>
