<svg width="40" height="40" viewBox="0 0 40 40">
	<g>
		<path class="st0" d="M16.6,19c-1,0-1.8,0.9-1.8,2.1s0.8,2.1,1.8,2.1c1,0,1.8-0.9,1.8-2.1C18.5,19.9,17.6,19,16.6,19z"/>
		<path class="st0" d="M23.4,19c-1,0-1.8,0.9-1.8,2.1s0.8,2.1,1.8,2.1c1,0,1.8-0.9,1.8-2.1S24.3,19,23.4,19z"/>
		<path class="st0" d="M20,0C8.9,0,0,8.9,0,20s8.9,20,20,20s20-9,20-20S31,0,20,0z M31.8,25.4c-1.5,2.6-5.6,3.3-6.5,3.4c0,0,0,0,0,0
			c-0.2,0-0.3-0.1-0.4-0.2l-0.9-1.3c2.5-0.7,3.8-1.8,3.9-1.8c0.2-0.2,0.2-0.5,0-0.7c-0.2-0.2-0.5-0.2-0.7,0c0,0-2.4,2.1-7.1,2.1
			c-4.7,0-7.1-2-7.1-2.1c-0.2-0.2-0.5-0.2-0.7,0c-0.2,0.2-0.2,0.5,0,0.7c0.1,0.1,1.4,1.2,3.9,1.8l-0.9,1.3c-0.1,0.1-0.2,0.2-0.4,0.2
			c0,0,0,0,0,0c-0.9,0-5-0.7-6.5-3.4c0-0.1-0.1-0.2-0.1-0.3c0-5.1,2.2-10.9,3.2-11.9c2.1-1.7,5.3-1.9,5.5-2c0.2,0,0.4,0.1,0.5,0.3
			c0,0,0.1,0.2,0.1,0.4c-1.4,0.2-3,0.7-4.5,1.6c-0.2,0.1-0.3,0.5-0.2,0.7c0.1,0.2,0.5,0.3,0.7,0.2c2.6-1.6,5.8-1.7,6.4-1.7
			s3.9,0.1,6.5,1.7c0.1,0.1,0.2,0.1,0.3,0.1c0.2,0,0.3-0.1,0.4-0.2c0.1-0.2,0.1-0.6-0.2-0.7c-1.5-0.9-3.2-1.4-4.5-1.6
			c0.1-0.2,0.1-0.4,0.2-0.4c0.1-0.2,0.3-0.3,0.5-0.3c0.1,0,3.4,0.3,5.4,1.9c1.1,1,3.3,6.9,3.3,12C31.8,25.2,31.8,25.3,31.8,25.4z"/>
	</g>
</svg>
