<?xml version="1.0" encoding="utf-8"?>
<!-- Generator: Adobe Illustrator 27.7.0, SVG Export Plug-In . SVG Version: 6.00 Build 0)  -->
<svg version="1.1" xmlns="http://www.w3.org/2000/svg" xmlns:xlink="http://www.w3.org/1999/xlink" x="0px" y="0px"
	 viewBox="0 0 130 130" style="enable-background:new 0 0 130 130;" xml:space="preserve">
<style type="text/css">
	.st0{fill:#FFFFFF;}
	.st1{clip-path:url(#SVGID_00000163787668035341508390000009657557819328524938_);}
	.st2{fill:#FFC329;}
	.st3{fill:#161616;}
	.st4{display:none;}
	.st5{display:inline;}
	.st6{display:inline;clip-path:url(#SVGID_00000001648513867286746320000000030168703888710330_);}
</style>
<g id="레이어_2">
</g>
<g id="레이어_1">
	<g>
		<path class="st0" d="M255.8,63.9c0-0.3,0-0.6,0-0.8c0-1-0.1-2.3-0.3-3.8c-0.3-2.2-0.8-4.3-1.2-6c-0.1-0.6-0.3-1.2-0.4-1.8
			l-0.1-0.5c-1-4.9-3-14.1-10.6-18.9c-0.4-0.3-1.3-1.2-1.9-1.9c-0.3-0.3-0.7-0.7-1-1c-0.2-0.2-0.3-0.4-0.5-0.7
			c-1.3-1.8-3.4-4.4-6.7-6.5c-3.9-2.5-7.7-3.4-10.6-4c-11-2-22.2-2.3-32.7-2.3c-2.8,0-5.1,0.5-6.7,0.9c-0.2,0.1-0.4,0.1-0.7,0.2
			c-1.7,0.2-6.9,0.9-11.1,4.1c-0.1,0.1-0.3,0.2-0.7,0.3c-1.5,0.7-2.6,1.5-3.4,2.1c-1.1,0.5-2.1,1.2-3,2c-1.7,0.8-3.5,1.8-5.4,3.2
			c-4,3-6.5,6.3-8.5,9.5c-0.2,0.2-0.4,0.4-0.6,0.6c-1.4,1.3-3.4,3.3-5.2,6.1c-3.6,5.8-4.1,11.8-4.5,15.8c-0.1,0.6-0.1,1.2-0.2,1.8
			c0,0.4-0.2,1.2-0.4,2c-0.4,2.1-1.1,4.9-1.1,8.3c0,5.5,1.9,10,3.2,12.9c0.3,0.7,0.8,1.8,0.8,2.1c1.9,8.7,7.6,12.3,10.7,14.2
			l0.1,0.1c0,0,0.1,0.1,0.1,0.1c2.1,5.5,6.1,9.9,11.5,12.8c6.2,3.3,12.2,3.4,16.6,3.5c1.2,0,3,0.1,3.7,0.2c2.9,1.4,8.6,3.5,15,3.7
			l0.7,0c0.6,0,1.3,0,2.1,0c1.7,0,3.7-0.1,5.8-0.6c2.8-0.6,4.9-1.6,6.3-2.3c0.3-0.1,0.5-0.2,0.8-0.3c1.4-0.6,3.3-1.1,5.2-1.7
			c6.8-1.9,16-4.5,22.8-13.7c0.4-0.5,0.8-1,1.2-1.6c3.9-5.1,9.2-12.2,10.2-21.7c0.1-0.6,0.2-1.4,0.4-2.3
			C256.3,74.4,257.1,69.4,255.8,63.9z"/>
		<g>
			<defs>
				<rect id="SVGID_1_" x="156.5" y="24.4" width="89" height="45"/>
			</defs>
			<clipPath id="SVGID_00000181808961560711272960000006926850621204902297_">
				<use xlink:href="#SVGID_1_"  style="overflow:visible;"/>
			</clipPath>
			<g style="clip-path:url(#SVGID_00000181808961560711272960000006926850621204902297_);">
				<path class="st2" d="M200.8,41.7c20.1,2.9,36.5,13.8,44.8,27.7C245,46,226.4,26.4,202.1,24.6c-19.7-1.5-37.5,9.3-45.6,25.8
					C168.3,42.8,184.1,39.2,200.8,41.7z"/>
			</g>
		</g>
		<path class="st3" d="M153.6,68.4c0.4,0.5,1.2,0.6,1.9,0.6c1.4,0,3-0.2,6.4-1.1c1.2-0.3,2.3-0.5,2.4-1c0-0.3,0-0.5-0.1-0.6
			c-0.2-0.3-0.6-0.5-1-0.4c-0.3,0.1-0.7,0.2-1.3,0.3c-0.6,0.1-1.1,0.3-1.7,0.4c-2,0.5-3,0.6-4.5,0.7c-0.6,0-0.9-0.2-0.9-0.8
			c0-1.2,0-2.1,0.1-3.6c0-0.2,0.1-0.3,0.3-0.4c0.4-0.1,0.8-0.2,1.1-0.2c0.3,0,0.7-0.1,1.3-0.2c1.1-0.1,2.3-0.4,2.9-0.6
			c0.3-0.1,0.6-0.3,0.6-0.9c0-0.5-0.4-0.8-0.8-0.7c-0.6,0.1-1.2,0.3-1.9,0.4c-0.7,0.2-1.4,0.4-2.2,0.5c-0.6,0.1-1.3,0.2-2.1,0.2
			c-0.8,0.1-1.5,0.1-2.1,0.1c-0.6,0-0.8,0.2-0.8,0.7c0,0.5,0.3,0.7,0.4,0.8c0.3,0.1,0.9,0.1,1.2,0.1c0.1,0,0.2,0.1,0.2,0.4
			c0,1.4-0.1,2-0.1,3.3c0,0.6,0.1,1,0.2,1.3C153.4,68.1,153.5,68.3,153.6,68.4z M165.3,69.7c-0.1,0.5,0,0.8,0.3,0.9
			c0.5,0.3,1.1,0,1.3-0.6c0.1-0.6,0.2-1.3,0.3-2.2c0.1-0.8,0.1-1.7,0.1-2.5c0-0.2,0-0.2,0.2-0.2c0.6,0.1,1.6,0.1,3,0.1
			c0.4,0,1.1-0.1,1.1-0.7v-0.2c-0.1-0.6-0.3-0.8-0.6-0.8c-0.8,0-1.6,0-2.5,0c-0.6,0-0.9-0.1-1.2-0.2c-0.1-0.1-0.1-0.4-0.1-0.7
			c0-0.3,0-0.6,0-1s0-0.8-0.1-1.5c-0.1-1.2-0.4-2.2-1.3-2.8c-0.5-0.3-0.9-0.5-2.2-0.9c-0.6-0.2-1-0.3-1.5-0.4
			c-0.3-0.1-0.7-0.1-0.9,0.2c-0.1,0.1-0.2,0.3-0.2,0.6c0,0.2,0.2,0.5,0.6,0.6c0.3,0.1,0.6,0.2,0.8,0.3c0.2,0.1,0.5,0.1,0.8,0.2
			c0.6,0.2,1.2,0.4,1.6,0.8c0.5,0.5,0.6,1,0.6,1.5c0,0.7,0.1,1.2,0.1,1.4c0,0.2,0,0.7,0.1,1.5c0,0.1,0,0.4-0.1,0.7
			c0,0.4-0.1,0.6-0.1,0.7v0.1l0.2,0.6c0,0.7,0,1.4,0,2.3C165.5,68.4,165.4,69.4,165.3,69.7z M155.4,75.3c-0.2,0.4-0.1,0.7,0.2,0.9
			c0.1,0.1,0.3,0.2,0.5,0.3c0.1,0,0.2,0.1,0.3,0.2c0.1,0.1,0.2,0.4,0.4,0.6c0.6,1,1.2,1.8,1.8,2.3c1.3,1.1,3.1,1.5,4.5,1.5
			c0.8,0,1.6-0.1,2.4-0.2c0.6-0.1,1-0.4,1.2-0.8c0.1-0.3,0.1-0.5,0-0.7c-0.1-0.3-0.4-0.4-0.7-0.4c-0.3,0-0.6,0.1-0.9,0.2
			c-0.7,0.2-1.3,0.2-1.9,0.2c-1.3-0.1-2.2-0.3-2.7-0.6c-1.1-0.7-1.9-1.8-2.1-2.6c0.3,0,0.5,0,0.8-0.1c0.3,0,0.7,0,1.3-0.1
			c0.9-0.1,1.8-0.1,2.5-0.2c0.8,0,1.5-0.1,2.3-0.1c0.4,0,0.9-0.1,1.1-0.6c0.1-0.3,0-0.5-0.1-0.7c-0.2-0.1-0.6-0.2-1-0.2
			c0.5-0.7,0.9-1.6,0.8-2.2c-0.1-0.7-0.7-1.3-2-1.4c-1.1-0.1-2.3-0.1-3.5-0.1c-2.3,0.1-3.3,0.2-4.3,0.4c-0.6,0.1-0.9,0.4-0.9,0.8
			c0,0.6,0.4,0.9,1,0.9c0.3,0,0.8-0.1,1.5-0.2c0.8-0.1,1.7-0.1,2.7-0.2c1.6-0.1,1.7-0.1,2.8,0.1c0.5,0,0.7,0.3,0.7,0.6
			c-0.1,0.4-0.4,1-0.7,1.5c-0.4,0.1-1,0.1-2,0.2c-1,0.1-1.7,0.1-2.3,0.1c-0.8,0.1-1.6,0.1-2.3,0.1C155.8,74.8,155.6,74.9,155.4,75.3
			z M172.5,70.3c0.5,1.1,1.6,1.5,2.8,1.5c1.3,0,2.8-0.4,3.9-1.1c1.3-0.9,2.1-2.5,2.2-4c0-0.7-0.1-1.5-0.5-2.1
			c-0.3-0.5-0.7-0.9-1.3-1.3c-0.1-0.1-0.3-0.2-0.4-0.3c-0.2-0.1-0.3-0.2-0.3-0.3c0-0.1,0-0.3,0.1-0.4c0-0.1,0.1-0.3,0.1-0.4
			c0-0.5-0.2-0.8-0.7-0.9c-0.1,0-0.3-0.1-0.4,0c-0.5,0-0.5,0.3-0.6,0.6c-0.1,0.4-0.2,0.6-0.4,0.8c-0.1,0-0.3,0.1-0.5,0.1
			c-0.2,0-0.4,0-0.5,0.1c-0.2,0-0.4,0.1-0.5,0.3c-0.2,0.3-0.1,0.6,0.2,0.8c0.1,0,0.2,0.1,0.4,0.2c0,0.1,0,0.2-0.1,0.3
			c-0.3,0.4-0.7,1-1.3,1.7c-0.6,0.7-1.2,1.3-1.7,1.9C172.4,68.4,172.2,69.5,172.5,70.3z M174.1,69.7c-0.1-0.2-0.1-0.8,0.3-1.2
			c0.4-0.4,0.7-0.8,1.1-1.2c0.3-0.4,0.7-0.8,1.1-1.2c0.3-0.3,0.6-0.7,0.8-1c0.2-0.3,0.4-0.5,0.5-0.7c0.1-0.1,0.1-0.1,0.2-0.1
			c0.1,0,0.1,0,0.2,0c0.6,0.2,1,0.7,1.2,1c0.4,0.7,0.4,1.5,0.2,2.2c-0.2,0.7-0.9,1.6-1.5,2c-0.8,0.6-1.8,0.9-2.8,0.8
			C174.7,70.3,174.3,70.1,174.1,69.7z M185,77.4c-0.1,0.8-0.1,1.1,0.3,1.3c0.4,0.1,1-0.1,1.2-0.8c0.3-1,0.5-4.2,0.6-5.2
			c0.1-1.7,0.1-3.2,0.1-4.6c0-0.2,0-0.2,0.2-0.2c0.9,0.2,2,0.3,3.1,0.4c0.4,0,1,0,1-0.6v-0.1c-0.1-0.6-0.3-0.8-0.5-0.8
			c-0.7,0-1.6-0.1-2.6-0.3c-0.7-0.1-1.1-0.2-1.1-0.5c-0.1-0.1-0.1-0.4-0.1-0.7c0-0.6,0-1.5,0-2.5s0-1.9-0.1-2.6
			c-0.1-1.2-0.4-2.1-1.3-2.7c-0.5-0.3-0.9-0.5-2.3-0.9c-0.6-0.2-1-0.3-1.5-0.4c-0.3-0.1-0.7-0.1-0.9,0.2c-0.1,0.1-0.2,0.3-0.2,0.6
			c0,0.2,0.2,0.5,0.6,0.6c0.3,0.1,0.6,0.2,0.8,0.3c0.2,0.1,0.5,0.1,0.8,0.2c0.6,0.2,1.2,0.4,1.6,0.8c0.5,0.5,0.7,1.1,0.7,1.5
			c0.1,0.9,0.1,1.8,0.1,2.8s0,1.9,0,2.9c0,0.1,0,0.4-0.1,0.7c-0.1,0.4-0.1,0.6-0.1,0.7v0.1l0.2,0.6c0,1.1,0,2.6-0.1,4.3
			C185.3,74.3,185.2,76.1,185,77.4z M192.6,71.1c0,0.4,0.2,0.8,0.5,0.9c0.2,0.1,0.4,0.1,0.7,0.1c0.2,0,0.5,0,0.7-0.1
			c0.7-0.1,1.5-0.3,2.8-0.5c1.1-0.2,1-0.2,2-0.4c0.4-0.1,0.7-0.1,1-0.1c0.3,0,0.5,0,0.6-0.1c0.3-0.1,0.6-0.2,0.6-0.8
			c0-0.1,0-0.2-0.1-0.3c-0.2-0.3-0.5-0.4-0.9-0.4c-0.7,0.1-1.2,0.1-2.9,0.5c-1.6,0.3-2,0.4-3.2,0.6c-0.2,0-0.2-0.1-0.1-0.2
			c0.1-0.2,0.1-0.3,0.1-0.4c0-0.1,0.1-0.3,0.3-0.6c0.3-0.5,0.4-0.8,0.6-1.1c0.1-0.3,0.3-0.5,0.4-0.7c0.4-0.1,0.8-0.2,1.3-0.4
			c0.6-0.1,1.2-0.4,2-0.6c0.6-0.2,0.8-0.7,0.7-1c-0.1-0.2-0.3-0.4-0.6-0.3c0.3-0.6,0.5-1.1,0.6-1.6c0.1-0.6,0.3-1.3,0.3-1.8
			c0-0.5-0.4-0.8-0.9-0.8c-0.8,0-1.6,0.1-3,0.4c-0.7,0.1-1.1,0.3-1.8,0.5c-0.5,0.1-0.8,0.5-0.7,0.9c0.1,0.5,0.6,0.7,0.9,0.6
			c0.2-0.1,0.5-0.2,0.8-0.3c0.3-0.1,0.7-0.2,1.3-0.4c0.8-0.2,0.9-0.2,1.5-0.2c0.2,0,0.3,0.1,0.3,0.2c0,0.4-0.1,0.7-0.3,1.3
			c-0.2,0.8-0.5,1.4-1,1.6c-0.3,0.1-0.6,0.2-1,0.4c-0.9,0.3-1.7,0.4-2.6,0.5c-0.4,0-0.7,0.2-0.7,0.6v0c0,0.4,0.5,0.6,1,0.6
			c-0.1,0.4-0.4,0.9-0.8,1.6C192.7,70.2,192.6,70.6,192.6,71.1z M202.4,75.1c-0.1,0.8-0.1,1.1,0.4,1.3c0.4,0.1,1.1-0.1,1.2-0.8
			c0.2-1.3,0.3-3.3,0.3-4.3c0-1,0.1-2.3,0.1-3.9c0-0.2,0-0.2,0.2-0.2c0.6,0.1,1.4,0.1,2.2,0.1c0,1.5,0,2.8-0.1,4
			c0,1.9-0.2,5.2-0.4,6.4c-0.1,0.8-0.1,1.1,0.3,1.3c0.4,0.1,1-0.1,1.3-0.8c0.3-0.9,0.5-4.3,0.6-6.8c0.1-1.9,0.1-4.1,0.1-6.7
			c0-2,0-3.6-0.1-5.2c-0.1-1.2-0.5-1.8-1.3-2.4c-0.7-0.5-1.4-0.8-2.1-1c-0.3-0.1-0.7-0.1-0.9,0.2c-0.1,0.1-0.2,0.3-0.2,0.6
			c0,0.2,0.2,0.4,0.6,0.6c0.5,0.2,1.1,0.5,1.5,0.8c0.5,0.4,0.7,0.9,0.8,1.4c0.1,1.4,0.1,3.7,0.1,5.7v0.3c-0.4,0-0.9,0-1.5,0
			c-0.4,0-0.7-0.1-0.8-0.3c-0.1-0.1-0.1-0.5-0.1-0.9c0-0.4,0-1,0-1.7c0-0.7-0.1-1.3-0.1-2c-0.1-1.2-0.4-1.8-1.3-2.3
			c-0.7-0.4-1.1-0.6-2.1-0.8c-0.3-0.1-0.7-0.1-0.9,0.2c-0.1,0.1-0.2,0.3-0.2,0.6c0,0.2,0.2,0.5,0.6,0.6c0.7,0.2,1.1,0.4,1.5,0.7
			c0.4,0.3,0.6,1,0.6,1.5c0,0.5,0.1,1.3,0.1,2.3c0,1,0,2.1,0,3.1c0,1.8,0,3.2,0,4.3C202.6,73,202.6,73.6,202.4,75.1z"/>
		<g>
			<polygon class="st3" points="202.4,92.1 202.4,92.1 202.4,92.1 			"/>
			<path class="st3" d="M220.5,83.6L220.5,83.6c0,0.4,0.3,0.8,0.9,1l0,0c0.3,0.2,0.6,0.3,0.9,0.3c0.2,0.1,0.5,0.1,0.7,0.2
				c0.3,0.1,0.6,0.2,0.9,0.3c0.3,0.1,0.4,0.2,0.6,0.3c0.4,0.4,0.5,0.8,0.5,1.2v0l0,0c0.1,1.8,0.1,3.2,0.1,4.2c0,1.4,0.1,2.8,0,4.3
				c0,0.4-0.1,1-0.1,1.6c0,0.6-0.1,1.1-0.2,1.3l0.4,0.1l0,0l-0.4-0.1l0,0c-0.1,0.3,0,0.6,0,0.8c0.1,0.2,0.2,0.4,0.4,0.5l0,0l0,0
				c0.4,0.2,0.8,0.2,1.1,0c0.3-0.1,0.6-0.4,0.7-0.7l0,0c0,0,0,0,0,0c0,0,0,0,0,0l0,0c0.1-0.1,0.1-0.4,0.1-0.6c0-0.2,0.1-0.5,0.1-0.9
				c0.1-0.6,0.1-1.3,0.2-1.8l-0.4,0l0,0l0.4,0l0,0l0,0c0.1-1.9,0.1-3.7,0-5.4h0c0-1-0.1-2.2-0.1-3.6c0,0,0,0,0,0c0,0,0,0,0,0h0
				c0-1.3-0.4-2.4-1.5-3l0,0c0,0,0,0,0,0c0,0,0,0,0,0l0,0c-0.5-0.4-1-0.5-2.3-0.9l0,0c-0.6-0.2-1.1-0.3-1.5-0.4l0,0
				c-0.3-0.1-0.9-0.1-1.3,0.3l0,0c0,0,0,0,0,0c0,0,0,0,0,0l0,0C220.6,82.8,220.5,83.2,220.5,83.6L220.5,83.6
				C220.5,83.5,220.5,83.5,220.5,83.6C220.5,83.5,220.5,83.5,220.5,83.6z M227.2,90.3L227.2,90.3L227.2,90.3L227.2,90.3L227.2,90.3z
				 M227,86.7L227,86.7L227,86.7L227,86.7z M223.6,83.1L223.6,83.1L223.6,83.1L223.6,83.1L223.6,83.1z M221.1,82.9L221.1,82.9
				L221.1,82.9L221.1,82.9z"/>
			<path class="st3" d="M227.6,103.3c0-0.3-0.2-0.5-0.4-0.7l0,0c0,0,0,0,0,0c0,0,0,0,0,0l0,0c-0.2-0.2-0.5-0.3-0.8-0.2v0
				c0,0,0,0,0,0c0,0,0,0,0,0l0,0c-0.3,0-0.7,0.2-0.9,0.4c-0.3,0.2-0.6,0.4-0.8,0.6c-0.6,0.4-1.2,0.5-1.8,0.5l0,0l0,0
				c-0.5,0-1.1-0.2-1.8-0.8c-0.5-0.5-0.9-1-1.4-1.7l0,0c-0.3-0.5-0.6-0.9-0.9-1.2l-0.3,0.3l0,0l0,0l0.3-0.3l0,0l0,0
				c-0.1-0.1-0.4-0.4-1-0.5l0,0c0,0,0,0,0,0c0,0,0,0,0,0l0,0c-0.4,0-0.7,0.1-0.9,0.3l0,0c0,0,0,0,0,0c0,0,0,0-0.1,0.1l0,0
				c-0.2,0.2-0.4,0.4-0.4,0.6c0,0.3,0,0.5,0.2,0.7l0,0c0,0,0,0,0,0c0,0,0,0,0,0l0,0c0.2,0.4,0.4,0.7,0.8,1.2
				c0.4,0.6,0.8,1.1,1.1,1.4l0,0c0.5,0.7,1.1,1.2,1.6,1.5l0,0c0.7,0.5,1.8,0.8,2.9,0.8c0.6,0,1.3-0.1,1.9-0.3
				c0.6-0.2,1.2-0.5,1.6-0.8l0,0c0,0,0,0,0,0c0,0,0,0,0,0l0,0c0.2-0.1,0.5-0.4,0.7-0.6C227.3,104.2,227.6,103.8,227.6,103.3
				L227.6,103.3L227.6,103.3z M219.3,101.6L219.3,101.6L219.3,101.6L219.3,101.6z M217,100.2L217,100.2L217,100.2L217,100.2z
				 M218.7,103.7L218.7,103.7L218.7,103.7L218.7,103.7z"/>
			<polygon class="st3" points="199.9,86.8 199.9,86.8 199.9,87.2 			"/>
			<polygon class="st3" points="199.6,101.9 199.6,101.9 200,102 			"/>
			<polygon class="st3" points="210.6,89.3 210.6,89.3 210.2,89.3 			"/>
			<polygon class="st3" points="215,90 215,90 215.3,90.2 			"/>
			<polygon class="st3" points="207.9,98.2 207.9,98.2 208.3,98.3 			"/>
			<polygon class="st3" points="221.1,89.8 221.1,89.8 221,89.8 220.8,90.1 			"/>
			<path class="st3" d="M219.3,96.4L219.3,96.4c0.8-0.3,1.3-0.6,2-1.1l-0.2-0.3h0l0,0l0.2,0.3l0,0c0.9-0.6,1.3-1.7,1.3-2.5h0
				c0,0,0,0,0,0c0,0,0,0,0,0h0c0-0.9-0.3-1.6-0.9-2.4l0,0l0,0c-0.2-0.2-0.4-0.4-0.6-0.6l-0.3,0.3l0,0l0,0l0.3-0.3
				c-0.1-0.1-0.1-0.1-0.2-0.2c-0.1-0.1-0.1-0.1-0.2-0.1c-0.1-0.1-0.2-0.1-0.3-0.2l0,0c-0.6-0.5-1-0.7-1.5-0.9c0,0,0,0,0,0
				c0.1-0.2,0.1-0.4,0.1-0.6c0-0.4-0.1-0.7-0.4-0.9c-0.3-0.2-0.6-0.3-1-0.3c-0.2,0-0.4,0.1-0.6,0.3l0,0c0,0,0,0,0,0c0,0,0,0,0,0l0,0
				c-0.1,0.1-0.1,0.2-0.2,0.3c-0.1,0.1-0.1,0.3-0.2,0.5c-0.1,0.3-0.2,0.6-0.3,0.8c-0.1,0.1-0.2,0.3-0.4,0.5c-0.3,0.3-0.6,0.6-0.9,1
				l0.3,0.3l0,0v0L215,90c-0.5,0.6-1.3,1.6-2,2.9l0,0c0,0,0,0,0,0c0,0,0,0,0,0l0,0c-0.4,0.6-0.6,1.2-0.6,1.9c0,0.6,0.1,1,0.4,1.4
				l0,0l0,0c0.4,0.6,1.1,0.9,1.7,1l0.1-0.4l0,0l0,0l-0.1,0.4l0,0l0,0c0.3,0,0.6,0.1,0.8,0.1c0.3,0,0.5,0,0.8-0.1l0,0l0,0
				C217.1,97.1,218.3,96.8,219.3,96.4L219.3,96.4z M214.5,94.5L214.5,94.5L214.5,94.5L214.5,94.5z M220.5,92.7L220.5,92.7l-0.4,0
				L220.5,92.7z M218.7,90.4L218.7,90.4l-0.2,0.3c0.5,0.3,0.9,0.7,1.2,1.1c0.3,0.4,0.4,0.7,0.4,0.9h0l0,0c0,0.2,0,0.3-0.1,0.4
				c-0.1,0.1-0.2,0.3-0.4,0.4c-1,0.7-2.5,1.2-4.1,1.3l0,0l0,0c-0.4,0-0.5,0-0.6-0.1c0,0-0.1,0-0.1-0.2v-0.2c0-0.1,0-0.2,0.1-0.4
				c0.1-0.2,0.2-0.4,0.3-0.6c0.3-0.4,0.6-0.9,0.9-1.3c0.4-0.5,0.8-0.9,1.1-1.2c0.3-0.3,0.5-0.4,0.7-0.4c0.2,0,0.4,0.1,0.5,0.2
				L218.7,90.4L218.7,90.4z M219.9,93.9L219.9,93.9L219.9,93.9L219.9,93.9z M218.5,88.6L218.5,88.6
				C218.5,88.6,218.5,88.6,218.5,88.6L218.5,88.6z M220.2,89.6L220.2,89.6L220.2,89.6L220.2,89.6z M217.3,87.1L217.3,87.1
				L217.3,87.1L217.3,87.1z M216.7,88.7L216.7,88.7L216.7,88.7L216.7,88.7L216.7,88.7z M216.2,89.3L216.2,89.3L216.2,89.3
				L216.2,89.3z"/>
			<polygon class="st3" points="218.5,90.8 218.5,90.8 218.7,90.4 218.5,90.7 			"/>
			<path class="st3" d="M206.7,99.7l-0.2,0.3l0,0L206.7,99.7L206.7,99.7c-1.3-0.8-2.5-0.8-3.5-0.7v0c0,0,0,0,0,0c0,0,0,0,0,0v0
				c-1.9,0.2-3.3,1.4-3.6,3l0.4,0.1l0,0l0,0l-0.4-0.1c-0.3,1.5,0.1,3.1,1.2,4l0,0c1.1,1,2.5,1.3,3.9,1.3c1.1,0,2.1-0.3,2.8-1
				c0.8-0.7,1.2-1.6,1.3-2.8l-0.1,0l0.1,0l0,0C208.8,101.8,208,100.5,206.7,99.7z M206.2,103.4c0,0.7-0.6,1.4-1.4,1.4h0
				c-0.9,0-1.7-0.2-2.1-0.5c-0.6-0.5-0.7-1.2-0.6-1.8c0.1-0.6,0.7-1.1,1.4-1.1c0.9,0,1.3,0.1,1.7,0.3c0.4,0.2,0.6,0.5,0.7,0.8
				C206.1,102.8,206.2,103.1,206.2,103.4z M203.2,99.4L203.2,99.4L203.2,99.4L203.2,99.4L203.2,99.4z"/>
			<path class="st3" d="M210.6,89.3l-0.4,0l0,0v0L210.6,89.3c0-1-0.1-2.1-0.1-3.1h0c0,0,0,0,0,0c0,0,0,0,0,0h0c0-1.2-0.4-2.4-1.5-3
				l0,0c0,0,0,0,0,0c0,0,0,0,0,0c-0.5-0.4-1-0.5-2.3-0.9l0,0c-0.6-0.2-1.1-0.3-1.5-0.4l0,0c-0.3-0.1-0.9-0.1-1.3,0.3l0,0
				c0,0,0,0,0,0c0,0,0,0,0,0l0,0c-0.2,0.2-0.3,0.5-0.3,0.9h0c0,0,0,0,0,0c0,0,0,0,0,0l0,0c0,0.4,0.3,0.8,0.9,1l0,0
				c0.3,0.2,0.6,0.3,0.9,0.3c0.2,0.1,0.5,0.1,0.7,0.2c0.3,0.1,0.6,0.2,0.9,0.3c0.3,0.1,0.4,0.2,0.6,0.3c0.4,0.4,0.5,0.8,0.5,1.2v0
				l0,0l0.4,0c0,0,0,0,0,0l-0.4,0c0.1,1.3,0.1,2.4,0.1,3.3c0,0,0,0-0.1,0c-0.4,0.1-1.2,0.2-1.9,0.2c-0.5,0-0.6,0-1.4-0.1l0,0
				c-0.2,0-0.4,0-0.6,0c0.3-0.5,0.6-1,0.8-1.4l0,0c0,0,0,0,0,0c0,0,0,0,0,0l0,0c0.1-0.3,0.2-0.5,0.2-0.8c0-0.3,0-0.5-0.1-0.8
				c-0.2-0.5-0.8-0.7-1.3-0.7c-0.2,0-0.5,0-0.7,0.1l0,0l0,0c-0.3,0.1-0.6,0.1-0.9,0.2c-0.8,0.1-1.3,0.2-2.2,0.3l0,0.4l0,0l0,0l0-0.4
				c-0.9,0.1-1.2,0.1-2.3,0.1c-0.4,0-0.8,0.1-1,0.3c-0.3,0.3-0.4,0.6-0.3,1l0,0c0,0,0,0,0,0c0,0,0,0,0,0l0,0c0.1,0.5,0.3,0.8,0.7,1
				c0.4,0.2,0.8,0.3,1.3,0.2v0c1.3-0.1,1.6-0.1,3.2-0.3v0l0,0c0.2,0,0.3-0.1,0.5-0.1c-0.3,0.5-0.7,1.1-1.1,1.6
				c-0.2,0.2-0.4,0.3-0.5,0.4c-0.3,0.1-0.6,0.2-0.8,0.5l0,0l0,0l0.3,0.2l0,0v0l-0.3-0.2c-0.1,0.1-0.2,0.3-0.3,0.5
				c-0.1,0.2-0.1,0.3-0.2,0.4c-0.9,1-1.5,1.6-2.7,2.6c-0.8,0.5-1.1,0.7-1.5,0.9c0,0,0,0,0,0c0,0,0,0,0,0c0,0,0,0,0,0c0,0,0,0,0,0
				c0,0,0,0,0,0c0,0,0,0,0,0c0,0,0,0,0,0c0,0,0,0,0,0c0,0,0,0,0,0c0,0,0,0,0,0c0,0,0,0,0,0c0,0,0,0,0,0c0,0,0,0,0,0c0,0,0,0,0,0
				c0,0,0,0,0,0c0,0,0,0,0,0c0,0,0,0,0,0c0,0,0,0,0,0c0,0,0,0,0,0c0,0,0,0,0,0c0,0,0,0,0,0c0,0,0,0,0,0c0,0,0,0,0,0c0,0,0,0,0,0
				c0,0,0,0,0,0c0,0,0,0,0,0s0,0,0,0c0,0,0,0,0,0c0,0,0,0,0,0c0,0,0,0,0,0c0,0,0,0,0,0c0,0,0,0,0,0s0,0,0,0c0,0,0,0,0,0c0,0,0,0,0,0
				c0,0,0,0,0,0c0,0,0,0,0,0c0,0,0,0,0,0c0,0,0,0,0,0c0,0,0,0,0,0c0,0,0,0,0,0c0,0,0,0,0,0c0,0,0,0,0,0c0,0,0,0,0,0c0,0,0,0,0,0
				c0,0,0,0,0,0c0,0,0,0,0,0c0,0,0,0,0,0c0,0,0,0,0,0c0,0,0,0,0,0c0,0,0,0,0,0c0,0,0,0,0,0c0,0,0,0,0,0c0,0,0,0,0,0c0,0,0,0,0,0
				c0,0,0,0,0,0c0,0,0,0,0,0c0,0,0,0,0,0c0,0,0,0,0,0c0,0,0,0,0,0c0,0,0,0,0,0c0,0,0,0,0,0c0,0,0,0,0,0c0,0,0,0,0,0c0,0,0,0,0,0
				c0,0,0,0,0,0c0,0,0,0,0,0c0,0,0,0,0,0c0,0,0,0,0,0c0,0,0,0,0,0c0,0,0,0,0,0c0,0,0,0,0,0c0,0,0,0,0,0c0,0,0,0,0,0c0,0,0,0,0,0
				c0,0,0,0,0,0c0,0,0,0,0,0c0,0,0,0,0,0c0,0,0,0,0,0c0,0,0,0,0,0c0,0,0,0,0,0c0,0,0,0,0,0c0,0,0,0,0,0c0,0,0,0,0,0c0,0,0,0,0,0
				c0,0,0,0,0,0c0,0,0,0,0,0c0,0,0,0,0,0c0,0,0,0,0,0c0,0,0,0,0,0c0,0,0,0,0,0c0,0,0,0,0,0c0,0,0,0,0,0c0,0,0,0,0,0c0,0,0,0,0,0
				c0,0,0,0,0,0c0,0,0,0,0,0c0,0,0,0,0,0c0,0,0,0,0,0c0,0,0,0,0,0c0,0,0,0,0,0c0,0,0,0,0,0c0,0,0,0,0,0c0,0,0,0,0,0c0,0,0,0,0,0
				c0,0,0,0,0,0c0,0,0,0,0,0c0,0,0,0,0,0c0,0,0,0,0,0c0,0,0,0,0,0c0,0,0,0,0,0c0,0,0,0,0,0c0,0,0,0,0,0c0,0,0,0,0,0c0,0,0,0,0,0
				c0,0,0,0,0,0c0,0,0,0,0,0c0,0,0,0,0,0c0,0,0,0,0,0c0,0,0,0,0,0c0,0,0,0,0,0c0,0,0,0,0,0c0,0,0,0,0,0c0,0,0,0,0,0c0,0,0,0,0,0
				c0,0,0,0,0,0c0,0,0,0,0,0c0,0,0,0,0,0c0,0,0,0,0,0c0,0,0,0,0,0c0,0,0,0,0,0c0,0,0,0,0,0c0,0,0,0,0,0c0,0,0,0,0,0s0,0,0,0
				c0,0,0,0,0,0c0,0,0,0,0,0c0,0,0,0,0,0c0,0,0,0,0,0c0,0,0,0,0,0c0,0,0,0,0,0c0,0,0,0,0,0c0,0,0,0,0,0c0,0,0,0,0,0c0,0,0,0,0,0
				c0,0,0,0,0,0c0,0,0,0,0,0c0,0,0,0,0,0c0,0,0,0,0,0c0,0,0,0,0,0c0,0,0,0,0,0c0,0,0,0,0,0c0,0,0,0,0,0c0,0,0,0,0,0c0,0,0,0,0,0
				c0,0,0,0,0,0c0,0,0,0,0,0c0,0,0,0,0,0c0,0,0,0,0,0c0,0,0,0,0,0c0,0,0,0,0,0c0,0,0,0,0,0c0,0,0,0,0,0c0,0,0,0,0,0c0,0,0,0,0,0
				c0,0,0,0,0,0c0,0,0,0,0,0c0,0,0,0,0,0c0,0,0,0,0,0c0,0,0,0,0,0c0,0,0,0,0,0c0,0,0,0,0,0c0,0,0,0,0,0c0,0,0,0,0,0c0,0,0,0,0,0
				c0,0,0,0,0,0c0,0,0,0,0,0c0,0,0,0,0,0c0,0,0,0,0,0c0,0,0,0,0,0c0,0,0,0,0,0c0,0,0,0,0,0c0,0,0,0,0,0c0,0,0,0,0,0c0,0,0,0,0,0
				c0,0,0,0,0,0c0,0,0,0,0,0c0,0,0,0,0,0c0,0,0,0,0,0c0,0,0,0,0,0c0,0,0,0,0,0c0,0,0,0,0,0s0,0,0,0c0,0,0,0,0,0c0,0,0,0,0,0
				c0,0,0,0,0,0c0,0,0,0,0,0c0,0,0,0,0,0c0,0,0,0,0,0c0,0,0,0,0,0c0,0,0,0,0,0c0,0,0,0,0,0c0,0,0,0,0,0c0,0,0,0,0,0c0,0,0,0,0,0
				c0,0,0,0,0,0c0,0,0,0,0,0c0,0,0,0,0,0c0,0,0,0,0,0c0,0,0,0,0,0c0,0,0,0,0,0c0,0,0,0,0,0c0,0,0,0,0,0c0,0,0,0,0,0c0,0,0,0,0,0
				c0,0,0,0,0,0c0,0,0,0,0,0c0,0,0,0,0,0c0,0,0,0,0,0c0,0,0,0,0,0c0,0,0,0,0,0c0,0,0,0,0,0c0,0,0,0,0,0c0,0,0,0,0,0c0,0,0,0,0,0
				c0,0,0,0,0,0c0,0,0,0,0,0c0,0,0,0,0,0c0,0,0,0,0,0c0,0,0,0,0,0c0,0,0,0,0,0c0,0,0,0,0,0c0,0,0,0,0,0c0,0,0,0,0,0c0,0,0,0,0,0
				c0,0,0,0,0,0c0,0,0,0,0,0c0,0,0,0,0,0c0,0,0,0,0,0c0,0,0,0,0,0c0,0,0,0,0,0c0,0,0,0,0,0c0,0,0,0,0,0c0,0,0,0,0,0c0,0,0,0,0,0
				c0,0,0,0,0,0c0,0,0,0,0,0c0,0,0,0,0,0c0,0,0,0,0,0c0,0,0,0,0,0c0,0,0,0,0,0c0,0,0,0,0,0c0,0,0,0,0,0c0,0,0,0,0,0c0,0,0,0,0,0
				c0,0,0,0,0,0c0,0,0,0,0,0c0,0,0,0,0,0c0,0,0,0,0,0c0,0,0,0,0,0c0,0,0,0,0,0c0,0,0,0,0,0c0,0,0,0,0,0c0,0,0,0,0,0c0,0,0,0,0,0
				c0,0,0,0,0,0c0,0,0,0,0,0c0,0,0,0,0,0c0,0,0,0,0,0c0,0,0,0,0,0c0,0,0,0,0,0c0,0,0,0,0,0c0,0,0,0,0,0c0,0,0,0,0,0c0,0,0,0,0,0
				c0,0,0,0,0,0c0,0,0,0,0,0c0,0,0,0,0,0c0,0,0,0,0,0c0,0,0,0,0,0c0,0,0,0,0,0c0,0,0,0,0,0c0,0,0,0,0,0c0,0,0,0,0,0c0,0,0,0,0,0
				c0,0,0,0,0,0c0,0,0,0,0,0s0,0,0,0c0,0,0,0,0,0c0,0,0,0,0,0c0,0,0,0,0,0c0,0,0,0,0,0c0,0,0,0,0,0s0,0,0,0c0,0,0,0,0,0c0,0,0,0,0,0
				c0,0,0,0,0,0c0,0,0,0,0,0c0,0,0,0,0,0s0,0,0,0c0,0,0,0,0,0c0,0,0,0,0,0c0,0,0,0,0,0c0,0,0,0,0,0c0,0,0,0,0,0c0,0,0,0,0,0
				c0,0,0,0,0,0c0,0,0,0,0,0c0,0,0,0,0,0c0,0,0,0,0,0c0,0,0,0,0,0c0,0,0,0,0,0c0,0,0,0,0,0c0,0,0,0,0,0c0,0,0,0,0,0c0,0,0,0,0,0
				c0,0,0,0,0,0c0,0,0,0,0,0c0,0,0,0,0,0c0,0,0,0,0,0c0,0,0,0,0,0c0,0,0,0,0,0c0,0,0,0,0,0c0,0,0,0,0,0c0,0,0,0,0,0c0,0,0,0,0,0
				c0,0,0,0,0,0c0,0,0,0,0,0c0,0,0,0,0,0c0,0,0,0,0,0c0,0,0,0,0,0c0,0,0,0,0,0c0,0,0,0,0,0c0,0,0,0,0,0c0,0,0,0,0,0c0,0,0,0,0,0
				c0,0,0,0,0,0c0,0,0,0,0,0c0,0,0,0,0,0c0,0,0,0,0,0c0,0,0,0,0,0c0,0,0,0,0,0c0,0,0,0,0,0c0,0,0,0,0,0c0,0,0,0,0,0s0,0,0,0
				c0,0,0,0,0,0c0,0,0,0,0,0c0,0,0,0,0,0c0,0,0,0,0,0c0,0,0,0,0,0c0,0,0,0,0,0c0,0,0,0,0,0c0,0,0,0,0,0c0,0,0,0,0,0c0,0,0,0,0,0
				c0,0,0,0,0,0c0,0,0,0,0,0c0,0,0,0,0,0c0,0,0,0,0,0c0,0,0,0,0,0c0,0,0,0,0,0c0,0,0,0,0,0c0,0,0,0,0,0c0,0,0,0,0,0c0,0,0,0,0,0
				c0,0,0,0,0,0c0,0,0,0,0,0c0,0,0,0,0,0c0,0,0,0,0,0c0,0,0,0,0,0c0,0,0,0,0,0c0,0,0,0,0,0c0,0,0,0,0,0c0,0,0,0,0,0c0,0,0,0,0,0
				c0,0,0,0,0,0c0,0,0,0,0,0c0,0,0,0,0,0c0,0,0,0,0,0c0,0,0,0,0,0c0,0,0,0,0,0c0,0,0,0,0,0c0,0,0,0,0,0c0,0,0,0,0,0c0,0,0,0,0,0
				c0,0,0,0,0,0c0,0,0,0,0,0c0,0,0,0,0,0c0,0,0,0,0,0c0,0,0,0,0,0c0,0,0,0,0,0c0,0,0,0,0,0c0,0,0,0,0,0s0,0,0,0c0,0,0,0,0,0
				c0,0,0,0,0,0c0,0,0,0,0,0c0,0,0,0,0,0c0,0,0,0,0,0c0,0,0,0,0,0c0,0,0,0,0,0c0,0,0,0,0,0c0,0,0,0,0,0c0,0,0,0,0,0c0,0,0,0,0,0
				c0,0,0,0,0,0c0,0,0,0,0,0c0,0,0,0,0,0c0,0,0,0,0,0c0,0,0,0,0,0c0,0,0,0,0,0c0,0,0,0,0,0c0,0,0,0,0,0c0,0,0,0,0,0c0,0,0,0,0,0
				c0,0,0,0,0,0c0,0,0,0,0,0c0,0,0,0,0,0c0,0,0,0,0,0c0,0,0,0,0,0c0,0,0,0,0,0c0,0,0,0,0,0c0,0,0,0,0,0c0,0,0,0,0,0c0,0,0,0,0,0
				c0,0,0,0,0,0c0,0,0,0,0,0c0,0,0,0,0,0c0,0,0,0,0,0c0,0,0,0,0,0c0,0,0,0,0,0c0,0,0,0,0,0c0,0,0,0,0,0c0,0,0,0,0,0c0,0,0,0,0,0
				c0,0,0,0,0,0c0,0,0,0,0,0c0,0,0,0,0,0c0,0,0,0,0,0c0,0,0,0,0,0c0,0,0,0,0,0c0,0,0,0,0,0c0,0,0,0,0,0c0,0,0,0,0,0c0,0,0,0,0,0
				s0,0,0,0c0,0,0,0,0,0c0,0,0,0,0,0c0,0,0,0,0,0c0,0,0,0,0,0c0,0,0,0,0,0s0,0,0,0c0,0,0,0,0,0c0,0,0,0,0,0c0,0,0,0,0,0c0,0,0,0,0,0
				c0,0,0,0,0,0c0,0,0,0,0,0c0,0,0,0,0,0c0,0,0,0,0,0c0,0,0,0,0,0c0,0,0,0,0,0c0,0,0,0,0,0c0,0,0,0,0,0c0,0,0,0,0,0c0,0,0,0,0,0
				c0,0,0,0,0,0c0,0,0,0,0,0c0,0,0,0,0,0c0,0,0,0,0,0c0,0,0,0,0,0c0,0,0,0,0,0c0,0,0,0,0,0c0,0,0,0,0,0c0,0,0,0,0,0c0,0,0,0,0,0
				c0,0,0,0,0,0c0,0,0,0,0,0c0,0,0,0,0,0c0,0,0,0,0,0c0,0,0,0,0,0c0,0,0,0,0,0c0,0,0,0,0,0c0,0,0,0,0,0c0,0,0,0,0,0c0,0,0,0,0,0
				c0,0,0,0,0,0c0,0,0,0,0,0c0,0,0,0,0,0c0,0,0,0,0,0c0,0,0,0,0,0c0,0,0,0,0,0c0,0,0,0,0,0c0,0,0,0,0,0c0,0,0,0,0,0c0,0,0,0,0,0
				c0,0,0,0,0,0c0,0,0,0,0,0c0,0,0,0,0,0c0,0,0,0,0,0c0,0,0,0,0,0c0,0,0,0,0,0c0,0,0,0,0,0c0,0,0,0,0,0c0,0,0,0,0,0
				c-0.3,0.1-0.5,0.4-0.6,0.8l0,0l0,0c0,0.8,0.4,1.4,1,1.4l0,0c0,0,0,0,0,0c0,0,0,0,0,0v0c0.5,0,1.1-0.1,1.7-0.5l-0.2-0.4l0,0
				l0.2,0.4l0,0l0,0c0.9-0.5,2.3-1.8,3.1-2.5l0,0c0.5-0.4,1-0.9,1.4-1.3c0.2,0.1,0.4,0.3,0.6,0.4c0.2,0.1,0.4,0.3,0.6,0.5l0,0l0,0
				l0.3-0.3l0,0l-0.3,0.3c0.3,0.3,0.7,0.7,1.1,1.1l0,0l0,0l0.3-0.3l0,0h0l-0.3,0.3c0,0,0,0,0,0c0,0,0,0,0,0c0,0,0,0,0,0c0,0,0,0,0,0
				c0,0,0,0,0,0c0,0,0,0,0,0c0,0,0,0,0,0c0,0,0,0,0,0c0,0,0,0,0,0c0,0,0,0,0,0c0,0,0,0,0,0c0,0,0,0,0,0c0,0,0,0,0,0c0,0,0,0,0,0
				c0,0,0,0,0,0c0,0,0,0,0,0c0,0,0,0,0,0c0,0,0,0,0,0c0,0,0,0,0,0c0,0,0,0,0,0c0,0,0,0,0,0c0,0,0,0,0,0c0,0,0,0,0,0c0,0,0,0,0,0
				c0,0,0,0,0,0c0,0,0,0,0,0c0,0,0,0,0,0c0,0,0,0,0,0c0,0,0,0,0,0c0,0,0,0,0,0c0,0,0,0,0,0c0,0,0,0,0,0c0,0,0,0,0,0c0,0,0,0,0,0
				c0,0,0,0,0,0c0,0,0,0,0,0c0,0,0,0,0,0c0,0,0,0,0,0c0,0,0,0,0,0c0,0,0,0,0,0c0,0,0,0,0,0c0,0,0,0,0,0c0,0,0,0,0,0c0,0,0,0,0,0
				c0,0,0,0,0,0c0,0,0,0,0,0c0,0,0,0,0,0c0,0,0,0,0,0c0,0,0,0,0,0c0,0,0,0,0,0c0,0,0,0,0,0c0,0,0,0,0,0c0,0,0,0,0,0c0,0,0,0,0,0
				c0,0,0,0,0,0c0,0,0,0,0,0c0,0,0,0,0,0c0,0,0,0,0,0c0,0,0,0,0,0c0,0,0,0,0,0c0,0,0,0,0,0c0,0,0,0,0,0c0,0,0,0,0,0c0,0,0,0,0,0
				c0,0,0,0,0,0c0,0,0,0,0,0c0,0,0,0,0,0c0,0,0,0,0,0c0,0,0,0,0,0c0,0,0,0,0,0c0,0,0,0,0,0c0,0,0,0,0,0c0,0,0,0,0,0c0,0,0,0,0,0
				c0,0,0,0,0,0c0,0,0,0,0,0c0,0,0,0,0,0c0,0,0,0,0,0c0,0,0,0,0,0c0,0,0,0,0,0c0,0,0,0,0,0c0,0,0,0,0,0c0,0,0,0,0,0c0,0,0,0,0,0
				c0,0,0,0,0,0c0,0,0,0,0,0c0,0,0,0,0,0c0,0,0,0,0,0c0,0,0,0,0,0c0,0,0,0,0,0c0,0,0,0,0,0c0,0,0,0,0,0c0,0,0,0,0,0c0,0,0,0,0,0
				c0,0,0,0,0,0c0,0,0,0,0,0c0,0,0,0,0,0c0,0,0,0,0,0c0,0,0,0,0,0c0,0,0,0,0,0c0,0,0,0,0,0c0,0,0,0,0,0c0,0,0,0,0,0c0,0,0,0,0,0
				c0,0,0,0,0,0c0,0,0,0,0,0c0,0,0,0,0,0c0,0,0,0,0,0c0,0,0,0,0,0c0,0,0,0,0,0c0,0,0,0,0,0c0,0,0,0,0,0c0,0,0,0,0,0c0,0,0,0,0,0
				c0,0,0,0,0,0c0,0,0,0,0,0c0,0,0,0,0,0c0,0,0,0,0,0c0,0,0,0,0,0c0,0,0,0,0,0c0,0,0,0,0,0c0,0,0,0,0,0s0,0,0,0c0,0,0,0,0,0
				c0,0,0,0,0,0c0,0,0,0,0,0s0,0,0,0c0,0,0,0,0,0c0,0,0,0,0,0s0,0,0,0c0,0,0,0,0,0s0,0,0,0c0,0,0,0,0,0c0,0,0,0,0,0c0,0,0,0,0,0
				c0,0,0,0,0,0c0,0,0,0,0,0c0,0,0,0,0,0s0,0,0,0c0,0,0,0,0,0s0,0,0,0c0,0,0,0,0,0s0,0,0,0s0,0,0,0c0,0,0,0,0,0s0,0,0,0c0,0,0,0,0,0
				c0,0,0,0,0,0s0,0,0,0c0,0,0,0,0,0c0,0,0,0,0,0s0,0,0,0s0,0,0,0c0,0,0,0,0,0c0,0,0,0,0,0c0,0,0,0,0,0s0,0,0,0s0,0,0,0s0,0,0,0
				s0,0,0,0c0,0,0,0,0,0s0,0,0,0c0,0,0,0,0,0s0,0,0,0c0,0,0,0,0,0s0,0,0,0c0,0,0,0,0,0s0,0,0,0c0,0,0,0,0,0s0,0,0,0s0,0,0,0s0,0,0,0
				c0,0,0,0,0,0s0,0,0,0s0,0,0,0s0,0,0,0c0,0,0,0,0,0s0,0,0,0c0,0,0,0,0,0c0,0,0,0,0,0s0,0,0,0s0,0,0,0s0,0,0,0c0,0,0,0,0,0
				c0,0,0,0,0,0s0,0,0,0s0,0,0,0c0,0,0,0,0,0s0,0,0,0s0,0,0,0s0,0,0,0c0,0,0,0,0,0s0,0,0,0c0,0,0,0,0,0s0,0,0,0c0,0,0,0,0,0
				c0,0,0,0,0,0s0,0,0,0c0,0,0,0,0,0c0,0,0,0,0,0c0,0,0,0,0,0s0,0,0,0c0,0,0,0,0,0s0,0,0,0c0,0,0,0,0,0s0,0,0,0c0,0,0,0,0,0s0,0,0,0
				c0,0,0,0,0,0c0,0,0,0,0,0c0,0,0,0,0,0c0,0,0,0,0,0c0,0,0,0,0,0c0,0,0,0,0,0c0,0,0,0,0,0c0,0,0,0,0,0c0,0,0,0,0,0c0,0,0,0,0,0
				c0,0,0,0,0,0c0,0,0,0,0,0c0,0,0,0,0,0c0,0,0,0,0,0c0,0,0,0,0,0c0,0,0,0,0,0c0,0,0,0,0,0s0,0,0,0c0,0,0,0,0,0c0,0,0,0,0,0
				c0,0,0,0,0,0c0,0,0,0,0,0c0,0,0,0,0,0c0,0,0,0,0,0c0,0,0,0,0,0c0,0,0,0,0,0c0,0,0,0,0,0c0,0,0,0,0,0c0,0,0,0,0,0c0,0,0,0,0,0
				c0,0,0,0,0,0c0,0,0,0,0,0c0,0,0,0,0,0c0,0,0,0,0,0c0,0,0,0,0,0c0,0,0,0,0,0c0,0,0,0,0,0c0,0,0,0,0,0c0,0,0,0,0,0s0,0,0,0
				c0,0,0,0,0,0c0,0,0,0,0,0c0,0,0,0,0,0c0,0,0,0,0,0c0,0,0,0,0,0c0,0,0,0,0,0c0,0,0,0,0,0c0,0,0,0,0,0c0,0,0,0,0,0c0,0,0,0,0,0
				c0,0,0,0,0,0c0,0,0,0,0,0c0,0,0,0,0,0c0,0,0,0,0,0c0,0,0,0,0,0c0,0,0,0,0,0c0,0,0,0,0,0c0,0,0,0,0,0c0,0,0,0,0,0c0,0,0,0,0,0
				c0,0,0,0,0,0c0,0,0,0,0,0c0,0,0,0,0,0c0,0,0,0,0,0c0,0,0,0,0,0c0,0,0,0,0,0c0,0,0,0,0,0c0,0,0,0,0,0c0,0,0,0,0,0c0,0,0,0,0,0
				c0,0,0,0,0,0c0,0,0,0,0,0c0,0,0,0,0,0c0,0,0,0,0,0c0,0,0,0,0,0c0,0,0,0,0,0c0,0,0,0,0,0c0,0,0,0,0,0c0,0,0,0,0,0c0,0,0,0,0,0
				c0,0,0,0,0,0c0,0,0,0,0,0s0,0,0,0c0,0,0,0,0,0c0,0,0,0,0,0c0,0,0,0,0,0c0,0,0,0,0,0c0,0,0,0,0,0c0,0,0,0,0,0c0,0,0,0,0,0
				c0,0,0,0,0,0c0,0,0,0,0,0c0,0,0,0,0,0c0,0,0,0,0,0c0,0,0,0,0,0c0,0,0,0,0,0c0,0,0,0,0,0c0,0,0,0,0,0c0,0,0,0,0,0c0,0,0,0,0,0
				c0,0,0,0,0,0c0,0,0,0,0,0c0,0,0,0,0,0c0,0,0,0,0,0c0,0,0,0,0,0c0,0,0,0,0,0c0,0,0,0,0,0c0,0,0,0,0,0c0,0,0,0,0,0c0,0,0,0,0,0
				c0,0,0,0,0,0c0,0,0,0,0,0c0,0,0,0,0,0c0,0,0,0,0,0c0,0,0,0,0,0c0,0,0,0,0,0c0,0,0,0,0,0c0,0,0,0,0,0c0,0,0,0,0,0c0,0,0,0,0,0
				c0,0,0,0,0,0c0,0,0,0,0,0c0,0,0,0,0,0c0,0,0,0,0,0c0,0,0,0,0,0c0,0,0,0,0,0c0,0,0,0,0,0c0,0,0,0,0,0c0,0,0,0,0,0c0,0,0,0,0,0
				s0,0,0,0c0,0,0,0,0,0c0,0,0,0,0,0s0,0,0,0c0,0,0,0,0,0c0,0,0,0,0,0c0,0,0,0,0,0c0,0,0,0,0,0c0,0,0,0,0,0c0,0,0,0,0,0c0,0,0,0,0,0
				c0,0,0,0,0,0c0,0,0,0,0,0c0,0,0,0,0,0c0,0,0,0,0,0c0,0,0,0,0,0c0,0,0,0,0,0s0,0,0,0c0,0,0,0,0,0c0,0,0,0,0,0c0,0,0,0,0,0
				c0,0,0,0,0,0c0,0,0,0,0,0c0,0,0,0,0,0c0,0,0,0,0,0c0,0,0,0,0,0c0,0,0,0,0,0c0,0,0,0,0,0c0,0,0,0,0,0c0,0,0,0,0,0c0,0,0,0,0,0
				c0,0,0,0,0,0c0,0,0,0,0,0c0,0,0,0,0,0c0,0,0,0,0,0c0,0,0,0,0,0c0,0,0,0,0,0c0,0,0,0,0,0c0,0,0,0,0,0c0,0,0,0,0,0c0,0,0,0,0,0
				c0,0,0,0,0,0c0,0,0,0,0,0s0,0,0,0c0,0,0,0,0,0s0,0,0,0c0,0,0,0,0,0c0,0,0,0,0,0c0,0,0,0,0,0s0,0,0,0c0,0,0,0,0,0c0,0,0,0,0,0
				c0,0,0,0,0,0c0,0,0,0,0,0c0,0,0,0,0,0c0,0,0,0,0,0c0,0,0,0,0,0c0,0,0,0,0,0c0,0,0,0,0,0c0,0,0,0,0,0c0,0,0,0,0,0c0,0,0,0,0,0
				c0,0,0,0,0,0c0,0,0,0,0,0c0,0,0,0,0,0c0,0,0,0,0,0s0,0,0,0c0,0,0,0,0,0s0,0,0,0c0,0,0,0,0,0c0,0,0,0,0,0c0,0,0,0,0,0s0,0,0,0
				c0,0,0,0,0,0c0,0,0,0,0,0c0,0,0,0,0,0s0,0,0,0c0,0,0,0,0,0c0,0,0,0,0,0c0,0,0,0,0,0c0,0,0,0,0,0c0,0,0,0,0,0s0,0,0,0c0,0,0,0,0,0
				c0,0,0,0,0,0c0,0,0,0,0,0c0,0,0,0,0,0c0,0,0,0,0,0c0,0,0,0,0,0c0,0,0,0,0,0c0,0,0,0,0,0c0,0,0,0,0,0c0,0,0,0,0,0c0,0,0,0,0,0
				c0,0,0,0,0,0c0,0,0,0,0,0c0,0,0,0,0,0c0,0,0,0,0,0c0,0,0,0,0,0c0,0,0,0,0,0c0,0,0,0,0,0c0,0,0,0,0,0c0,0,0,0,0,0c0,0,0,0,0,0
				c0,0,0,0,0,0c0,0,0,0,0,0c0,0,0,0,0,0c0,0,0,0,0,0c0,0,0,0,0,0s0,0,0,0c0,0,0,0,0,0c0,0,0,0,0,0c0,0,0,0,0,0c0,0,0,0,0,0
				c0,0,0,0,0,0c0,0,0,0,0,0c0,0,0,0,0,0c0,0,0,0,0,0c0,0,0,0,0,0c0,0,0,0,0,0c0,0,0,0,0,0c0,0,0,0,0,0c0,0,0,0,0,0c0,0,0,0,0,0
				c0,0,0,0,0,0c0,0,0,0,0,0c0,0,0,0,0,0c0,0,0,0,0,0c0,0,0,0,0,0c0,0,0,0,0,0c0,0,0,0,0,0c0,0,0,0,0,0c0,0,0,0,0,0c0,0,0,0,0,0
				c0,0,0,0,0,0c0,0,0,0,0,0c0,0,0,0,0,0c0,0,0,0,0,0c0,0,0,0,0,0c0,0,0,0,0,0c0,0,0,0,0,0c0,0,0,0,0,0c0,0,0,0,0,0c0,0,0,0,0,0
				c0,0,0,0,0,0c0,0,0,0,0,0c0,0,0,0,0,0c0,0,0,0,0,0c0,0,0,0,0,0c0,0,0,0,0,0c0,0,0,0,0,0c0,0,0,0,0,0c0,0,0,0,0,0c0,0,0,0,0,0
				s0,0,0,0c0,0,0,0,0,0c0,0,0,0,0,0c0,0,0,0,0,0c0,0,0,0,0,0c0,0,0,0,0,0c0,0,0,0,0,0c0,0,0,0,0,0c0,0,0,0,0,0c0,0,0,0,0,0
				c0,0,0,0,0,0c0,0,0,0,0,0c0,0,0,0,0,0c0,0,0,0,0,0c0,0,0,0,0,0c0,0,0,0,0,0c0,0,0,0,0,0c0,0,0,0,0,0s0,0,0,0c0,0,0,0,0,0
				c0.1,0.1,0.2,0.2,0.3,0.2c0.1,0,0.2,0,0.3,0.1l0,0l0,0l0-0.4l0,0l0,0.4c0.6,0,1.2-0.5,1.3-1.1l-0.4-0.1l0,0l0,0l0.4,0.1l0,0l0,0
				c0-0.2,0-0.4-0.1-0.7c-0.1-0.2-0.2-0.4-0.4-0.6l0,0l0,0l-0.3,0.3l0,0l0.3-0.3c-0.2-0.2-0.6-0.5-1.1-1c-0.3-0.3-0.6-0.6-0.9-0.7
				c-0.1-0.1-0.3-0.2-0.5-0.4c0.2-0.3,0.4-0.5,0.5-0.7l0,0c0.1-0.1,0.1-0.2,0.2-0.3c0,0.3,0.1,0.5,0.3,0.7c0.2,0.2,0.4,0.3,0.6,0.4
				l0,0l0,0l0.1-0.4l0,0l0,0l-0.1,0.4c0.4,0.1,1,0.1,1.6,0.1c0.8,0,1.6-0.1,2.2-0.2c0,1.2,0,2.2,0,3.1c0,0.4-0.1,1-0.1,1.6
				c0,0.6-0.1,1.1-0.2,1.3l0.4,0.1l0,0v0l-0.4-0.1c-0.1,0.3,0,0.6,0,0.8c0.1,0.2,0.2,0.4,0.4,0.5l0,0l0,0c0.4,0.2,0.8,0.2,1.1,0
				c0.3-0.1,0.6-0.4,0.7-0.7l0,0c0,0,0,0,0,0c0,0,0,0,0,0l0,0c0-0.1,0.1-0.3,0.1-0.5c0-0.2,0.1-0.5,0.1-0.8c0.1-0.6,0.1-1.3,0.1-1.9
				c0,0,0,0,0,0c0,0,0,0,0,0h0C210.6,93.7,210.6,91.6,210.6,89.3z M202.4,92.2L202.4,92.2l-0.1,0.1l0,0v0L202.4,92.2l-0.1-0.1l0,0
				L202.4,92.2L202.4,92.2L202.4,92.2L202.4,92.2l0.2,0.2L202.4,92.2z M208.6,92C208.6,92,208.6,92,208.6,92L208.6,92L208.6,92z
				 M204.6,83.6L204.6,83.6L204.6,83.6L204.6,83.6z M208.2,90.1L208.2,90.1L208.2,90.1L208.2,90.1z M204.6,88.4L204.6,88.4
				L204.6,88.4L204.6,88.4z M202.2,86.9L202.2,86.9L202.2,86.9L202.2,86.9z M196.7,88.1L196.7,88.1L196.7,88.1L196.7,88.1z
				 M198.3,89L198.3,89L198.3,89L198.3,89z M201.4,88.7L201.4,88.7l0,0.3L201.4,88.7z M200.7,93.7L200.7,93.7L200.7,93.7L200.7,93.7
				L200.7,93.7z M201,94l0.2-0.3l0,0l0,0L201,94L201,94z M203.5,90.4L203.5,90.4L203.5,90.4L203.5,90.4z"/>
		</g>
		<g>
			<path class="st0" d="M214.3,9.5c0.1-0.1,0.2-0.1,0.3,0c0.1,0,0.2,0.1,0.2,0.2c0.1,0.1,0.2,0.3,0.2,0.4c0.1,0.2,0.1,0.3,0.1,0.5
				l-0.4,2.9c0,0.1,0,0.2,0,0.3c0,0.1,0,0.2-0.1,0.3c0,0.1-0.1,0.1-0.1,0.2c-0.1,0.1-0.1,0.1-0.2,0.1c-0.1,0-0.1,0-0.1-0.1
				c0-0.1-0.1-0.1-0.1-0.2c0-0.1,0-0.2,0-0.2c0-0.1,0-0.1,0-0.2l0.3-2.8c0-0.1,0-0.2,0-0.3c0-0.1,0-0.2-0.1-0.3
				c0-0.1-0.1-0.2-0.1-0.3C214.1,9.7,214.2,9.6,214.3,9.5z"/>
			<path class="st0" d="M222.2,12.1l-0.1,0.3c0,0,0.1,0,0.1,0c0,0,0.1,0,0.2,0c0,0,0.1,0,0.1,0c0,0,0.1,0,0.1,0s0.1,0,0.1,0
				c0,0,0.1,0,0.1,0c0.1,0,0.2,0.1,0.2,0.1c0,0.1,0,0.1,0,0.2c0,0.1-0.1,0.2-0.1,0.2c-0.1,0-0.1,0-0.2,0c0,0,0,0-0.1,0
				c0,0-0.1,0-0.1,0c0,0-0.1,0-0.1,0s-0.1,0-0.2,0c0,0,0,0-0.1,0c0,0,0,0-0.1,0c0,0,0,0-0.1,0c0,0,0,0-0.1,0l-0.3,1.5
				c0,0.1-0.1,0.2-0.1,0.3s-0.1,0.2-0.1,0.3c0,0.1-0.1,0.2-0.2,0.2c-0.1,0.1-0.1,0.1-0.2,0.1c-0.1,0-0.1-0.1-0.2-0.3
				c0-0.2,0-0.4,0.1-0.7l0.3-1.5c-0.1,0-0.1,0-0.2,0c-0.1,0-0.1,0-0.2,0c-0.1,0-0.2,0-0.2-0.1c-0.1,0-0.1-0.1-0.1-0.2
				c0-0.1,0-0.1,0-0.2c0-0.1,0-0.1,0.1-0.2c0,0,0.1,0,0.1,0c0,0,0.1,0,0.2,0c0.1,0,0.1,0,0.2,0c0.1,0,0.1,0,0.2,0l0.2,0l0.1-0.2
				c0-0.2,0.1-0.4,0.2-0.5c0.1-0.2,0.2-0.3,0.3-0.4s0.3-0.2,0.5-0.2c0.2,0,0.4,0,0.6,0c0.1,0,0.2,0.1,0.2,0.1c0,0.1,0,0.1,0,0.2
				c0,0.1-0.1,0.2-0.1,0.2s-0.1,0.1-0.2,0.1c-0.2,0-0.4,0-0.5,0.1C222.3,11.7,222.3,11.8,222.2,12.1z"/>
			<path class="st0" d="M235.9,15.5c0.1,0,0.2,0,0.3,0.1c0.1,0.1,0.1,0.1,0.2,0.2c0,0.2,0,0.3,0,0.5c0,0.2,0,0.3-0.1,0.5l-1.4,2.6
				c0,0.1-0.1,0.1-0.1,0.2c-0.1,0.1-0.1,0.1-0.2,0.2c-0.1,0.1-0.1,0.1-0.2,0.1c-0.1,0-0.1,0-0.2,0c0,0-0.1-0.1-0.1-0.1
				c0-0.1,0-0.1,0-0.2c0-0.1,0-0.1,0.1-0.2c0-0.1,0.1-0.1,0.1-0.2l1.3-2.5c0-0.1,0.1-0.2,0.1-0.3c0-0.1,0.1-0.2,0.1-0.3
				c0-0.1,0-0.2,0-0.3C235.7,15.6,235.8,15.5,235.9,15.5z"/>
			<path class="st0" d="M247.9,25.7c0.1,0.1,0.2,0.2,0.3,0.3c0.1,0.1,0.2,0.2,0.2,0.3c0.1,0.1,0.1,0.2,0.1,0.4c0,0.1,0,0.2,0,0.4
				c0,0.1-0.1,0.1-0.1,0.2s-0.1,0.1-0.2,0.1c-0.1,0-0.2-0.1-0.2-0.1c0-0.1-0.1-0.1-0.1-0.2c0-0.1,0-0.3-0.1-0.4
				c-0.1-0.1-0.2-0.3-0.3-0.4c-0.2-0.2-0.3-0.3-0.4-0.3c-0.1-0.1-0.2,0-0.3,0c-0.1,0.1-0.1,0.2,0,0.3c0.1,0.1,0.1,0.3,0.2,0.4
				c0,0,0.1,0.1,0.1,0.1c0,0,0.1,0.1,0.1,0.1c0,0,0.1,0.1,0.1,0.2c0,0.1,0.1,0.1,0.1,0.2c0.2,0.3,0.3,0.5,0.3,0.8
				c0,0.2-0.1,0.4-0.3,0.6c-0.2,0.2-0.4,0.3-0.7,0.2c-0.3,0-0.6-0.2-1-0.6c-0.2-0.2-0.4-0.4-0.5-0.7c-0.1-0.3-0.2-0.5-0.2-0.7
				c0-0.1,0-0.1,0.1-0.2c0.1-0.1,0.1-0.1,0.2-0.1c0.1,0,0.2,0.1,0.2,0.1c0,0.1,0.1,0.1,0.1,0.2c0,0.2,0.1,0.4,0.2,0.5
				c0.1,0.1,0.2,0.3,0.3,0.4c0.1,0.1,0.3,0.3,0.4,0.3c0.2,0.1,0.3,0.1,0.4,0c0.1-0.1,0.1-0.2,0.1-0.3c0-0.1-0.1-0.3-0.2-0.4
				c0-0.1-0.1-0.1-0.1-0.2c0,0-0.1-0.1-0.1-0.1c0,0-0.1-0.1-0.1-0.2c0-0.1-0.1-0.1-0.1-0.2c-0.1-0.3-0.2-0.5-0.3-0.7
				c0-0.2,0-0.4,0.2-0.6c0.2-0.2,0.5-0.3,0.8-0.3C247.3,25.2,247.6,25.4,247.9,25.7z"/>
			<path class="st0" d="M252.8,31.9l0.1,0.1l0.4-0.3c0.1,0,0.1-0.1,0.2-0.2c0.1-0.1,0.1-0.1,0.2-0.2c0.1-0.1,0.1-0.2,0.2-0.3
				c0.1-0.1,0.2-0.1,0.3-0.1c0.1,0,0.1,0.1,0.2,0.2c0,0.1,0.1,0.2,0,0.3c0,0.2-0.1,0.3-0.2,0.4c-0.1,0.1-0.2,0.3-0.3,0.3l-0.6,0.4
				c0,0,0,0,0,0.1c0,0,0,0,0,0.1c0,0,0,0,0,0.1s0,0,0.1,0.1c0,0,0,0,0.1,0.1c0,0,0,0,0.1,0.1c0,0,0,0,0.1,0.1c0,0,0,0,0.1,0.1
				c0.1,0.1,0.1,0.2,0.1,0.2c0,0.1-0.1,0.1-0.1,0.2c-0.1,0.1-0.2,0.1-0.2,0.1c-0.1,0-0.1-0.1-0.2-0.1c0,0,0,0,0-0.1s0,0-0.1-0.1
				c0,0,0-0.1-0.1-0.1c0,0-0.1-0.1-0.1-0.1c0,0,0,0,0,0s0,0,0,0c0,0,0,0,0,0c0,0,0,0,0,0l-1,0.7c-0.2,0.1-0.3,0.3-0.3,0.4
				s0,0.3,0.2,0.5c0,0.1,0.1,0.1,0,0.2c0,0.1-0.1,0.1-0.1,0.2c-0.1,0-0.1,0-0.2,0.1c-0.1,0-0.1,0-0.2-0.1c-0.1-0.2-0.2-0.4-0.3-0.6
				c0-0.2,0-0.3,0-0.5c0-0.2,0.1-0.3,0.2-0.4c0.1-0.1,0.3-0.3,0.4-0.4l0.8-0.6c0,0-0.1-0.1-0.1-0.1c0,0-0.1-0.1-0.1-0.2
				c-0.1-0.1-0.1-0.1-0.1-0.2c0-0.1,0-0.1,0-0.2c0-0.1,0.1-0.1,0.1-0.2c0,0,0.1-0.1,0.1-0.1c0,0,0.1,0,0.1,0s0.1,0.1,0.1,0.1
				c0,0,0.1,0.1,0.1,0.2S252.7,31.9,252.8,31.9z"/>
			<path class="st0" d="M255.3,41.6c-0.1-0.1-0.2-0.2-0.4-0.3c-0.1-0.1-0.2-0.3-0.3-0.4c-0.2-0.4-0.3-0.8-0.2-1
				c0.1-0.3,0.3-0.5,0.5-0.6c0.3-0.1,0.6-0.1,0.9,0c0.3,0.2,0.5,0.5,0.7,0.9c0,0.1,0.1,0.2,0.1,0.4s0,0.2,0,0.4l0,0
				c0.2-0.1,0.4-0.2,0.4-0.4c0.1-0.2,0-0.4-0.1-0.7c-0.1-0.1-0.1-0.3-0.2-0.3c-0.1-0.1-0.2-0.2-0.3-0.2c-0.1,0-0.1-0.1-0.1-0.2
				c0-0.1,0-0.2,0.1-0.2c0.1-0.1,0.1-0.1,0.2-0.1s0.2,0,0.2,0.1c0.1,0.1,0.3,0.2,0.4,0.3c0.1,0.1,0.2,0.3,0.3,0.5
				c0.2,0.4,0.2,0.8,0.1,1.1c-0.1,0.3-0.4,0.5-0.7,0.7l-1,0.5c-0.1,0-0.2,0.1-0.3,0.1c-0.1,0-0.2,0.1-0.3,0.1c-0.1,0-0.2,0-0.2,0
				c-0.1,0-0.1,0-0.1-0.1c0,0,0-0.1,0-0.2C255.2,41.7,255.3,41.7,255.3,41.6z M256.3,41.1c0-0.1,0-0.2,0-0.3c0-0.1-0.1-0.3-0.1-0.4
				c-0.1-0.2-0.2-0.4-0.4-0.5s-0.3-0.1-0.5-0.1c-0.2,0.1-0.3,0.2-0.3,0.4c0,0.2,0.1,0.4,0.2,0.6c0.1,0.1,0.2,0.2,0.3,0.3
				s0.2,0.2,0.3,0.2L256.3,41.1z"/>
			<path class="st0" d="M261,48.6c0.1,0,0.2,0,0.2,0.1c0,0.1,0.1,0.1,0.1,0.2c0,0.1-0.1,0.2-0.1,0.2c-0.1,0-0.1,0.1-0.2,0.1
				l-3.8-0.5c-0.1,0-0.2,0-0.3-0.1c-0.1,0-0.2,0-0.3-0.1c-0.1,0-0.2-0.1-0.2-0.1c-0.1,0-0.1-0.1-0.1-0.2c0-0.1,0.1-0.1,0.3-0.2
				c0.2,0,0.4,0,0.7,0l0.9,0.1l1.3-1.3c0.1-0.1,0.1-0.2,0.2-0.3c0.1-0.1,0.1-0.2,0.2-0.3c0.1-0.1,0.1-0.2,0.2-0.3s0.2-0.1,0.2-0.1
				c0.1,0,0.1,0.1,0.1,0.2c0,0.1,0,0.2,0,0.2c0,0.2-0.1,0.3-0.2,0.5c-0.1,0.2-0.2,0.3-0.3,0.4l-1.1,1L261,48.6z"/>
			<path class="st0" d="M262.7,62c0.1,0,0.2-0.1,0.3-0.1c0.1-0.1,0.2-0.1,0.3-0.2c0.1-0.1,0.2-0.2,0.3-0.2c0.1,0,0.2,0,0.2,0
				c0,0,0.1,0.1,0.1,0.2c0,0.1,0,0.2-0.1,0.3c-0.1,0.1-0.2,0.3-0.4,0.4c-0.2,0.1-0.3,0.2-0.4,0.2l-1.6,0.4l2.2,0.5
				c0.1,0,0.2,0.1,0.2,0.1s0.1,0.1,0.1,0.2c0,0.1,0,0.1-0.1,0.2c0,0.1-0.1,0.1-0.2,0.1l-2.1,0.8l2.2,0.3c0.1,0,0.2,0.1,0.2,0.1
				c0,0.1,0.1,0.2,0,0.3c0,0.1,0,0.1-0.1,0.2c-0.1,0-0.2,0.1-0.3,0l-2.6-0.5c-0.1,0-0.1-0.1-0.2-0.1c0-0.1-0.1-0.2-0.1-0.2
				c0-0.1,0-0.2,0-0.2c0-0.1,0.1-0.1,0.1-0.1l1.9-0.8l-1.9-0.5c-0.1,0-0.1-0.1-0.2-0.1c0-0.1-0.1-0.1-0.1-0.2c0-0.1,0-0.2,0-0.3
				c0-0.1,0.1-0.1,0.1-0.1L262.7,62z"/>
			<path class="st0" d="M263.7,71.9c0.1,0,0.2,0,0.2,0.1s0.1,0.1,0.1,0.2c0,0.1,0,0.2-0.1,0.3c-0.1,0.1-0.1,0.1-0.2,0.1l-2.1-0.2
				c-0.1,0-0.2,0-0.3,0c-0.1,0-0.2,0-0.3-0.1c-0.1,0-0.2-0.1-0.2-0.1c-0.1,0-0.1-0.1-0.1-0.2c0-0.1,0.1-0.1,0.3-0.2
				c0.2,0,0.4,0,0.7,0L263.7,71.9z M264.9,72.7c-0.1,0-0.2-0.1-0.3-0.1c-0.1-0.1-0.1-0.2-0.1-0.3c0-0.1,0.1-0.2,0.1-0.3
				c0.1-0.1,0.2-0.1,0.3-0.1c0.1,0,0.2,0.1,0.3,0.1c0.1,0.1,0.1,0.2,0.1,0.3c0,0.1-0.1,0.2-0.1,0.3C265.1,72.7,265,72.7,264.9,72.7z
				"/>
			<path class="st0" d="M262.7,78.9l0,0.2l0.5,0.1c0.1,0,0.2,0,0.3,0c0.1,0,0.2,0,0.3,0c0.1,0,0.2-0.1,0.4-0.1c0.1,0,0.2,0,0.3,0.1
				c0,0.1,0,0.2,0,0.3c0,0.1-0.1,0.2-0.2,0.2c-0.1,0.1-0.3,0.1-0.4,0.2c-0.2,0-0.3,0-0.5,0l-0.7-0.2c0,0,0,0,0,0.1c0,0,0,0,0,0.1
				c0,0,0,0.1,0,0.1c0,0,0,0,0,0.1c0,0,0,0.1,0,0.1c0,0,0,0.1,0,0.1c0,0,0,0.1,0,0.1c0,0,0,0.1,0,0.1c0,0.1-0.1,0.2-0.1,0.2
				c-0.1,0-0.1,0-0.2,0c-0.1,0-0.2-0.1-0.2-0.1c0-0.1,0-0.1,0-0.2c0,0,0,0,0-0.1c0,0,0-0.1,0-0.1c0,0,0-0.1,0-0.1c0,0,0-0.1,0-0.2
				c0,0,0,0,0-0.1c0,0,0,0,0-0.1c0,0,0,0,0-0.1c0,0,0,0,0-0.1l-1.2-0.2c-0.2,0-0.4,0-0.5,0.1c-0.1,0.1-0.2,0.2-0.3,0.5
				c0,0.1,0,0.1-0.1,0.2s-0.1,0.1-0.2,0c-0.1,0-0.1-0.1-0.2-0.1c-0.1-0.1-0.1-0.1,0-0.2c0.1-0.3,0.1-0.5,0.2-0.6
				c0.1-0.1,0.2-0.3,0.4-0.3c0.1-0.1,0.3-0.1,0.5-0.1c0.2,0,0.4,0,0.6,0.1l0.9,0.2c0-0.1,0-0.1,0-0.2c0-0.1,0-0.1,0-0.2
				c0-0.1,0-0.2,0.1-0.2c0-0.1,0.1-0.1,0.2-0.1c0.1,0,0.1,0,0.2,0c0.1,0,0.1,0,0.2,0.1c0,0,0,0.1,0,0.1c0,0,0,0.1,0,0.2
				c0,0.1,0,0.1,0,0.2S262.7,78.9,262.7,78.9z"/>
			<path class="st0" d="M262.4,86.9c0,0.1,0,0.2,0,0.3c-0.1,0.1-0.1,0.1-0.2,0.2c-0.1,0.1-0.3,0.1-0.5,0.1s-0.3,0-0.5-0.1l-0.9-0.3
				c0.1,0.2,0.2,0.3,0.2,0.5c0,0.2,0,0.4,0,0.6c0,0.2-0.1,0.3-0.2,0.5s-0.2,0.2-0.4,0.3c-0.1,0.1-0.3,0.1-0.5,0.1
				c-0.2,0-0.4,0-0.5-0.1l-1.2-0.4c-0.1,0-0.2-0.1-0.2-0.1s-0.2-0.1-0.2-0.1c-0.1-0.1-0.1-0.1-0.2-0.2c0-0.1-0.1-0.1,0-0.2
				c0-0.1,0-0.1,0.1-0.1c0.1,0,0.1,0,0.2,0c0.1,0,0.2,0,0.2,0c0.1,0,0.1,0,0.2,0.1l1.1,0.4c0.2,0.1,0.4,0.1,0.6,0
				c0.2,0,0.3-0.2,0.4-0.4c0.1-0.2,0.1-0.4,0-0.6c-0.1-0.2-0.2-0.4-0.3-0.6l-1.1-0.4c-0.1,0-0.2-0.1-0.2-0.1s-0.2-0.1-0.2-0.1
				c-0.1,0-0.1-0.1-0.2-0.2c0-0.1-0.1-0.1,0-0.2c0-0.1,0-0.1,0.1-0.1c0.1,0,0.1,0,0.2,0c0.1,0,0.2,0,0.2,0c0.1,0,0.1,0,0.2,0.1
				l2.6,1c0.1,0,0.2,0,0.3,0.1c0.1,0,0.2,0,0.3,0c0.1,0,0.2,0,0.3,0S262.4,86.8,262.4,86.9z"/>
			<path class="st0" d="M252.4,102.9c0,0.1,0.1,0.2,0,0.2c0,0.1-0.1,0.1-0.2,0.2c-0.1,0-0.2,0.1-0.3,0s-0.1-0.1-0.2-0.1l-1.9-3.3
				c0-0.1-0.1-0.2-0.1-0.3c0-0.1-0.1-0.2-0.1-0.3c0-0.1,0-0.2,0-0.3c0-0.1,0-0.1,0.1-0.2c0.1,0,0.2,0,0.3,0.1s0.3,0.3,0.4,0.6
				l0.5,0.8l1.8,0.3c0.1,0,0.2,0,0.3,0c0.1,0,0.2,0,0.4,0c0.1,0,0.2,0,0.3,0c0.1,0,0.2,0.1,0.2,0.1c0,0.1,0,0.1-0.1,0.2
				c-0.1,0.1-0.1,0.1-0.2,0.2c-0.1,0.1-0.3,0.1-0.5,0.2c-0.2,0-0.3,0-0.5,0l-1.5-0.3L252.4,102.9z"/>
			<path class="st0" d="M247.5,106.7c0.2,0.2,0.3,0.3,0.4,0.5s0.2,0.4,0.2,0.6c0,0.2,0,0.4-0.1,0.6c-0.1,0.2-0.2,0.4-0.3,0.6
				c-0.2,0.2-0.3,0.3-0.5,0.4c-0.2,0.1-0.4,0.1-0.6,0.1c-0.2,0-0.4-0.1-0.6-0.2c-0.2-0.1-0.4-0.2-0.5-0.4c-0.2-0.2-0.3-0.3-0.4-0.5
				c-0.1-0.2-0.2-0.4-0.2-0.6c0-0.2,0-0.4,0.1-0.6c0.1-0.2,0.2-0.4,0.3-0.6c0.2-0.2,0.4-0.3,0.5-0.4c0.2-0.1,0.4-0.1,0.6-0.1
				c0.2,0,0.4,0.1,0.6,0.2C247.2,106.5,247.4,106.6,247.5,106.7z M247.1,107.2c-0.2-0.2-0.5-0.3-0.7-0.4c-0.2,0-0.5,0-0.7,0.3
				c-0.2,0.2-0.3,0.5-0.2,0.7s0.2,0.5,0.4,0.7c0.2,0.2,0.5,0.3,0.7,0.4c0.2,0,0.5,0,0.7-0.3c0.2-0.2,0.3-0.5,0.2-0.7
				C247.5,107.7,247.3,107.4,247.1,107.2z"/>
			<path class="st0" d="M239.8,115.7l-1.1-1.4c-0.2-0.3-0.3-0.6-0.2-1c0.1-0.3,0.3-0.6,0.6-0.9c0.3-0.3,0.6-0.4,1-0.4
				c0.3,0,0.6,0.1,0.9,0.5l0.5,0.6c0,0.1,0.1,0.1,0.2,0.2s0.2,0.1,0.2,0.2c0.1,0,0.2,0.1,0.3,0.2c0.1,0.1,0.2,0.2,0.1,0.3
				c0,0.1-0.1,0.2-0.2,0.2s-0.2,0.1-0.3,0c-0.2,0-0.3-0.1-0.5-0.2c-0.1-0.1-0.3-0.2-0.4-0.3l-0.5-0.7c-0.2-0.2-0.3-0.3-0.5-0.4
				c-0.2,0-0.4,0-0.6,0.2c-0.2,0.2-0.3,0.4-0.3,0.5c0,0.2,0.1,0.4,0.2,0.6l1,1.2c0.1,0.1,0.1,0.1,0.1,0.2c0,0.1-0.1,0.1-0.1,0.2
				c-0.1,0.1-0.2,0.1-0.2,0.1C239.9,115.8,239.8,115.8,239.8,115.7z"/>
		</g>
	</g>
	<g>
		<g class="st4">
			<defs>
				<rect id="SVGID_00000125566056676611179600000008351208443399580832_" x="19.6" y="24.4" width="89" height="45"/>
			</defs>
			<clipPath id="SVGID_00000136374639922187127290000010355338175151763343_" class="st5">
				<use xlink:href="#SVGID_00000125566056676611179600000008351208443399580832_"  style="overflow:visible;"/>
			</clipPath>
			<g style="display:inline;clip-path:url(#SVGID_00000136374639922187127290000010355338175151763343_);">
				<path class="st0" d="M63.8,41.7c20.1,2.9,36.5,13.8,44.8,27.7C108,46,89.5,26.4,65.2,24.6c-19.7-1.5-37.5,9.3-45.6,25.8
					C31.3,42.8,47.2,39.2,63.8,41.7z"/>
			</g>
		</g>
		<g>
			<polygon class="st0" points="67.9,94.6 68.2,94.3 67.9,94.6 			"/>
			<rect x="64" y="93.9" class="st0" width="0.3" height="0"/>
			<polygon class="st0" points="63.8,93.7 63.8,93.7 63.8,93.7 			"/>
			<polygon class="st0" points="61.3,89 61.3,89 61.3,89 			"/>
			<polygon class="st0" points="71.3,98.3 71,98.2 71.3,98.3 			"/>
			<polygon class="st0" points="67.5,91.8 67.4,92.2 67.5,91.8 			"/>
			<polygon class="st0" points="64.5,88.7 64.5,89 64.5,88.7 			"/>
			<polygon class="st0" points="65.4,92.1 65.4,92.1 65.4,92.2 65.6,92.3 65.4,92.2 			"/>
			<polygon class="st0" points="66.5,90.4 66.6,90.5 66.5,90.4 			"/>
			<polygon class="st0" points="65.4,92.1 65.4,92.1 65.4,92.1 			"/>
			<polygon class="st0" points="65.3,92.3 65.3,92.3 65.4,92.1 65.3,92.3 			"/>
			<rect x="65.3" y="92.1" transform="matrix(0.6508 -0.7593 0.7593 0.6508 -47.101 81.7881)" class="st0" width="0.1" height="0"/>
			<polygon class="st0" points="59.2,97.6 59.4,97.9 59.2,97.6 			"/>
			<path class="st0" d="M68.4,101.8c-0.4-0.3-0.8-0.4-1.7-0.3c-0.8,0-1.3,0.5-1.4,1.1c-0.1,0.6,0,1.3,0.6,1.8
				c0.4,0.3,1.2,0.6,2.1,0.5h0c0.8,0,1.4-0.7,1.4-1.4c0-0.3-0.1-0.6-0.2-0.9C68.9,102.3,68.7,102,68.4,101.8z"/>
			<polygon class="st0" points="73.3,89.3 73.7,89.3 73.3,89.3 			"/>
			<polygon class="st0" points="71.4,86.4 71,86.4 71.4,86.4 			"/>
			<polygon class="st0" points="69.6,100 69.8,99.7 69.6,100 			"/>
			<polygon class="st0" points="71.2,90.1 71.2,90.1 71.2,90.1 			"/>
			<polygon class="st0" points="66.6,95.8 66.6,95.8 66.3,96.1 66.6,95.8 			"/>
			<polygon class="st0" points="67.4,96.4 67.4,96.8 67.4,96.4 			"/>
			<polygon class="st0" points="68.3,95.6 68.7,95.7 68.3,95.6 			"/>
			<polygon class="st0" points="65.5,94.7 65.2,95 65.5,94.7 			"/>
			<path class="st0" d="M41.2,64.3c-0.1,0-0.1,0-0.2,0c-0.1,0-0.1,0-0.2,0.1c-0.1,0.1-0.3,0.4-0.5,0.7c-0.2,0.3-0.5,0.7-0.8,1
				c-0.4,0.4-0.8,0.8-1.1,1.2c-0.4,0.4-0.7,0.8-1.1,1.2c-0.4,0.4-0.4,1-0.3,1.2c0.2,0.4,0.6,0.6,1.3,0.6c0.9,0,2-0.3,2.8-0.8
				c0.6-0.4,1.3-1.3,1.5-2c0.2-0.7,0.2-1.5-0.2-2.2C42.2,65,41.8,64.5,41.2,64.3z"/>
			<polygon class="st0" points="62.9,91.7 62.9,91.7 62.6,91.5 62.9,91.7 			"/>
			<polygon class="st0" points="66.3,99.4 66.3,99.4 66.3,99.4 			"/>
			<polygon class="st0" points="81.7,103.7 81.7,103.7 81.7,103.7 			"/>
			<polygon class="st0" points="71.6,92 71.6,92 71.6,92 			"/>
			<polygon class="st0" points="88.3,98.4 87.9,98.3 88.3,98.4 			"/>
			<polygon class="st0" points="81.5,100.4 81.5,100.4 81.8,100.1 81.5,100.4 			"/>
			<polygon class="st0" points="80,100.2 80,100.2 80,100.2 			"/>
			<polygon class="st0" points="90.2,95.7 90.6,95.7 90.2,95.7 			"/>
			<polygon class="st0" points="90.2,90.3 90.2,90.3 90.2,90.3 			"/>
			<polygon class="st0" points="90.1,86.7 90.1,86.7 90.1,86.7 			"/>
			<polygon class="st0" points="84.2,82.9 84.2,82.9 84.2,82.9 			"/>
			<polygon class="st0" points="86.6,83.1 86.6,83.1 86.6,83.1 			"/>
			<path class="st0" d="M118.9,63.9c0-0.3,0-0.6,0-0.8c0-1-0.1-2.3-0.3-3.8c-0.3-2.2-0.8-4.3-1.2-6c-0.1-0.6-0.3-1.2-0.4-1.8
				l-0.1-0.5c-1-4.9-3-14.1-10.6-18.9c-0.4-0.3-1.3-1.2-1.9-1.9c-0.3-0.3-0.7-0.7-1-1c-0.2-0.2-0.3-0.4-0.5-0.7
				c-1.3-1.8-3.4-4.4-6.7-6.5c-3.9-2.5-7.7-3.4-10.6-4c-11-2-22.2-2.3-32.7-2.3c-2.8,0-5.1,0.5-6.7,0.9c-0.2,0.1-0.4,0.1-0.7,0.2
				c-1.7,0.2-6.9,0.9-11.1,4.1c-0.1,0.1-0.3,0.2-0.7,0.3c-1.5,0.7-2.6,1.5-3.4,2.1c-1.1,0.5-2.1,1.2-3,2c-1.7,0.8-3.5,1.8-5.4,3.2
				c-4,3-6.5,6.3-8.5,9.5c-0.2,0.2-0.4,0.4-0.6,0.6c-1.4,1.3-3.4,3.3-5.2,6.1c-3.6,5.8-4.1,11.8-4.5,15.8C3.1,61,3.1,61.6,3,62.2
				c0,0.4-0.2,1.2-0.4,2c-0.4,2.1-1.1,4.9-1.1,8.3c0,5.5,1.9,10,3.2,12.9c0.3,0.7,0.8,1.8,0.8,2.1c1.9,8.7,7.6,12.3,10.7,14.2
				l0.1,0.1c0,0,0.1,0.1,0.1,0.1c2.1,5.5,6.1,9.9,11.5,12.8c6.2,3.3,12.2,3.4,16.6,3.5c1.2,0,3,0.1,3.7,0.2c2.9,1.4,8.6,3.5,15,3.7
				l0.7,0c0.6,0,1.3,0,2.1,0c1.7,0,3.7-0.1,5.8-0.6c2.8-0.6,4.9-1.6,6.3-2.3c0.3-0.1,0.5-0.2,0.8-0.3c1.4-0.6,3.3-1.1,5.2-1.7
				c6.8-1.9,16-4.5,22.8-13.7c0.4-0.5,0.8-1,1.2-1.6c3.9-5.1,9.2-12.2,10.2-21.7c0.1-0.6,0.2-1.4,0.4-2.3
				C119.3,74.4,120.2,69.4,118.9,63.9z M16.4,67.7c-0.1-0.3-0.2-0.7-0.2-1.3c0-1.3,0-1.9,0.1-3.3c0-0.3-0.1-0.5-0.2-0.4
				c-0.4,0.1-1,0.1-1.2-0.1c-0.1-0.1-0.4-0.3-0.4-0.8c0-0.4,0.1-0.6,0.8-0.7c0.6,0,1.3-0.1,2.1-0.1c0.8,0,1.5-0.1,2.1-0.2
				c0.7-0.1,1.4-0.3,2.2-0.5c0.7-0.2,1.3-0.3,1.9-0.4c0.5-0.1,0.9,0.3,0.8,0.7c0,0.6-0.4,0.8-0.6,0.9c-0.6,0.2-1.8,0.5-2.9,0.6
				c-0.6,0.1-1,0.2-1.3,0.2c-0.3,0-0.6,0.1-1.1,0.2c-0.2,0-0.3,0.1-0.3,0.4c-0.1,1.6-0.1,2.4-0.1,3.6c0,0.6,0.3,0.8,0.9,0.8
				c1.5-0.1,2.5-0.2,4.5-0.7c0.6-0.1,1.1-0.3,1.7-0.4c0.5-0.1,0.9-0.3,1.3-0.3c0.4,0,0.8,0.1,1,0.4c0.1,0.1,0.1,0.4,0.1,0.6
				c-0.1,0.5-1.3,0.7-2.4,1c-3.4,0.8-5,1-6.4,1.1c-0.7,0-1.5-0.1-1.9-0.6C16.6,68.3,16.5,68.1,16.4,67.7z M29.7,80.2
				c-0.1,0.4-0.6,0.7-1.2,0.8c-0.8,0.1-1.6,0.2-2.4,0.2c-1.4,0-3.2-0.4-4.5-1.5c-0.7-0.6-1.3-1.4-1.8-2.3c-0.1-0.3-0.3-0.5-0.4-0.6
				c-0.1-0.1-0.2-0.2-0.3-0.2c-0.2-0.1-0.4-0.2-0.5-0.3c-0.2-0.2-0.4-0.5-0.2-0.9c0.1-0.4,0.4-0.5,1.2-0.5c0.8,0,1.6,0,2.3-0.1
				c0.6,0,1.3-0.1,2.3-0.1s1.6-0.1,2-0.2c0.4-0.5,0.6-1.1,0.7-1.5c0-0.3-0.2-0.6-0.7-0.6c-1.1-0.1-1.2-0.1-2.8-0.1
				c-1,0.1-1.9,0.1-2.7,0.2c-0.8,0.1-1.3,0.1-1.5,0.2c-0.6,0-1.1-0.3-1-0.9c0-0.4,0.3-0.7,0.9-0.8c1.1-0.1,2-0.3,4.3-0.4
				c1.2-0.1,2.4,0,3.5,0.1c1.3,0.1,1.9,0.7,2,1.4c0.1,0.6-0.3,1.5-0.8,2.2c0.4,0,0.8,0.1,1,0.2c0.2,0.2,0.2,0.4,0.1,0.7
				c-0.1,0.4-0.6,0.6-1.1,0.6c-0.7,0.1-1.5,0.1-2.3,0.1c-0.8,0.1-1.6,0.1-2.5,0.2c-0.6,0-1,0.1-1.3,0.1c-0.3,0-0.6,0-0.8,0.1
				c0.3,0.8,1.1,1.9,2.1,2.6c0.5,0.4,1.4,0.6,2.7,0.6c0.6,0,1.2,0,1.9-0.2c0.3-0.1,0.6-0.2,0.9-0.2c0.4,0,0.6,0.1,0.7,0.4
				C29.8,79.7,29.8,79.9,29.7,80.2z M34.6,64.5c0,0.6-0.7,0.7-1.1,0.7c-1.4,0-2.4,0-3-0.1c-0.2,0-0.2,0-0.2,0.2c0,0.8,0,1.7-0.1,2.5
				c-0.1,1-0.2,1.6-0.3,2.2c-0.1,0.6-0.8,0.8-1.3,0.6c-0.3-0.1-0.4-0.5-0.3-0.9c0.1-0.3,0.2-1.3,0.2-2.1c0.1-0.8,0.1-1.6,0-2.3
				l-0.2-0.6v-0.1c0-0.1,0-0.3,0.1-0.7c0-0.3,0.1-0.6,0.1-0.7c0-0.8,0-1.3-0.1-1.5c0-0.2-0.1-0.7-0.1-1.4c0-0.5-0.1-1-0.6-1.5
				c-0.4-0.3-1-0.5-1.6-0.8c-0.3-0.1-0.5-0.2-0.8-0.2c-0.2-0.1-0.5-0.1-0.8-0.3c-0.5-0.1-0.6-0.4-0.6-0.6c0-0.3,0.1-0.5,0.2-0.6
				c0.3-0.3,0.7-0.3,0.9-0.2c0.5,0.1,0.9,0.2,1.5,0.4c1.3,0.4,1.7,0.6,2.2,0.9c0.9,0.6,1.2,1.6,1.3,2.8c0.1,0.7,0.1,1.1,0.1,1.5
				s0,0.6,0,1c0,0.4,0,0.6,0.1,0.7c0.2,0.1,0.6,0.2,1.2,0.2c0.9,0,1.7,0.1,2.5,0c0.3,0,0.5,0.2,0.6,0.8V64.5z M42.3,70.7
				c-1.1,0.8-2.6,1.1-3.9,1.1c-1.2,0-2.3-0.4-2.8-1.5c-0.4-0.8-0.1-1.9,0.5-2.6c0.5-0.6,1.1-1.2,1.7-1.9c0.6-0.7,1-1.3,1.3-1.7
				c0-0.1,0.1-0.1,0.1-0.3c-0.2-0.1-0.3-0.1-0.4-0.2c-0.3-0.2-0.4-0.6-0.2-0.8c0.1-0.2,0.3-0.3,0.5-0.3c0.1,0,0.3-0.1,0.5-0.1
				c0.2,0,0.4,0,0.5-0.1c0.2-0.1,0.4-0.4,0.4-0.8c0-0.4,0.1-0.6,0.6-0.6c0.1,0,0.2,0,0.4,0c0.5,0.1,0.7,0.4,0.7,0.9
				c0,0.2-0.1,0.3-0.1,0.4c-0.1,0.1-0.1,0.3-0.1,0.4c0,0.1,0.1,0.2,0.3,0.3c0.2,0.1,0.3,0.2,0.4,0.3c0.6,0.4,1.1,0.8,1.3,1.3
				c0.4,0.6,0.5,1.4,0.5,2.1C44.4,68.2,43.6,69.8,42.3,70.7z M54.5,67.7c0,0.6-0.7,0.6-1,0.6c-1.1-0.1-2.2-0.2-3.1-0.4
				c-0.2,0-0.2,0-0.2,0.2c0,1.4,0,2.9-0.1,4.6c0,1-0.2,4.2-0.6,5.2c-0.2,0.7-0.8,1-1.2,0.8c-0.4-0.2-0.4-0.5-0.3-1.3
				c0.2-1.3,0.3-3,0.4-4.9c0-1.7,0.1-3.1,0.1-4.3l-0.2-0.6v-0.1c0-0.1,0-0.3,0.1-0.7c0-0.3,0.1-0.6,0.1-0.7c0-1,0-2,0-2.9
				s0-1.8-0.1-2.8c0-0.5-0.2-1.1-0.7-1.5c-0.4-0.3-1-0.5-1.6-0.8c-0.3-0.1-0.5-0.2-0.8-0.2c-0.2-0.1-0.5-0.1-0.8-0.3
				c-0.5-0.1-0.6-0.4-0.6-0.6c0-0.3,0.1-0.5,0.2-0.6c0.3-0.3,0.7-0.3,0.9-0.2c0.5,0.1,0.9,0.2,1.5,0.4c1.3,0.4,1.8,0.6,2.3,0.9
				c0.9,0.6,1.2,1.5,1.3,2.7c0.1,0.7,0.1,1.5,0.1,2.6s0,1.9,0,2.5c0,0.4,0,0.6,0.1,0.7c0,0.3,0.4,0.4,1.1,0.5c1,0.1,1.9,0.2,2.6,0.3
				c0.3-0.1,0.4,0.2,0.5,0.8V67.7z M55.7,71.1c0-0.6,0-0.9,0.5-1.7c0.4-0.6,0.6-1.2,0.8-1.6c-0.6,0-1-0.2-1-0.6v0
				c0-0.4,0.2-0.6,0.7-0.6c0.9-0.1,1.7-0.2,2.6-0.5c0.4-0.1,0.8-0.2,1-0.4c0.5-0.2,0.8-0.8,1-1.6c0.1-0.6,0.2-0.9,0.3-1.3
				c0-0.1-0.1-0.2-0.3-0.2c-0.6,0-0.7,0-1.5,0.2c-0.6,0.1-1,0.3-1.3,0.4c-0.3,0.1-0.6,0.2-0.8,0.3c-0.3,0.1-0.8-0.1-0.9-0.6
				c-0.1-0.5,0.1-0.8,0.7-0.9c0.7-0.3,1.1-0.4,1.8-0.5c1.4-0.3,2.2-0.4,3-0.4c0.6,0,0.9,0.3,0.9,0.8s-0.1,1.3-0.3,1.8
				c-0.1,0.6-0.3,1-0.6,1.6c0.3,0,0.5,0.1,0.6,0.3c0.1,0.3-0.1,0.8-0.7,1c-0.8,0.3-1.5,0.5-2,0.6c-0.5,0.1-0.9,0.3-1.3,0.4
				c-0.1,0.2-0.3,0.4-0.4,0.7c-0.1,0.3-0.3,0.7-0.6,1.1c-0.2,0.3-0.3,0.5-0.3,0.6c0,0.1-0.1,0.2-0.1,0.4c0,0.1-0.1,0.2,0.1,0.2
				c1.2-0.2,1.6-0.3,3.2-0.6c1.7-0.4,2.2-0.4,2.9-0.5c0.4,0,0.7,0.1,0.9,0.4c0.1,0.1,0.1,0.2,0.1,0.3c0,0.6-0.2,0.7-0.6,0.8
				c-0.1,0-0.4,0.1-0.6,0.1c-0.3,0-0.6,0.1-1,0.1c-1,0.1-1,0.1-2,0.4c-1.3,0.3-2,0.4-2.8,0.5c-0.2,0-0.5,0.1-0.7,0.1
				c-0.3,0-0.5-0.1-0.7-0.1C55.9,71.9,55.7,71.6,55.7,71.1z M69.8,59.7c0-0.5-0.3-1-0.8-1.4c-0.3-0.3-1-0.6-1.5-0.8
				c-0.5-0.2-0.6-0.4-0.6-0.6c0-0.3,0.1-0.5,0.2-0.6c0.3-0.3,0.7-0.3,0.9-0.2c0.7,0.2,1.3,0.5,2.1,1c0.8,0.6,1.2,1.2,1.3,2.4
				c0.1,1.7,0.1,3.3,0.1,5.2c0,2.5,0,4.8-0.1,6.7c-0.1,2.5-0.3,5.9-0.6,6.8c-0.2,0.7-0.9,1-1.3,0.8c-0.4-0.2-0.4-0.5-0.3-1.3
				c0.2-1.3,0.4-4.5,0.4-6.4c0-1.2,0.1-2.5,0.1-4c-0.8,0-1.6,0-2.2-0.1c-0.2,0-0.2,0-0.2,0.2c0,1.6,0,2.9-0.1,3.9s-0.1,3-0.3,4.3
				c-0.1,0.7-0.8,1-1.2,0.8c-0.4-0.2-0.5-0.5-0.4-1.3c0.1-1.4,0.2-2.1,0.3-3.9c0-1.1,0.1-2.5,0-4.3c0-1,0-2.1,0-3.1
				c0-1-0.1-1.8-0.1-2.3c0-0.5-0.2-1.2-0.6-1.5c-0.5-0.3-0.8-0.5-1.5-0.7c-0.5-0.1-0.6-0.4-0.6-0.6c0-0.3,0.1-0.5,0.2-0.6
				c0.3-0.3,0.7-0.3,0.9-0.2c0.9,0.3,1.3,0.4,2.1,0.8c0.8,0.5,1.2,1.1,1.3,2.3c0,0.6,0.1,1.3,0.1,2c0,0.7,0,1.3,0,1.7
				c0,0.4,0,0.8,0.1,0.9c0.1,0.2,0.4,0.3,0.8,0.3c0.5,0,1,0,1.5,0v-0.3C69.9,63.4,69.9,61.1,69.8,59.7z M71.8,103.4L71.8,103.4
				L71.8,103.4c0,1.2-0.5,2.2-1.3,2.8c-0.7,0.7-1.7,1-2.8,1c-1.3,0-2.7-0.3-3.9-1.3l0,0c-1.1-0.9-1.5-2.5-1.2-4l0,0L63,102l-0.4-0.1
				c0.3-1.6,1.7-2.8,3.6-3v0c0,0,0,0,0,0c0,0,0,0,0,0v0c1-0.1,2.2,0,3.5,0.7l0,0C71.1,100.5,71.8,101.8,71.8,103.4L71.8,103.4z
				 M73.6,95.5C73.6,95.5,73.6,95.5,73.6,95.5C73.6,95.5,73.6,95.5,73.6,95.5c0,0.6-0.1,1.3-0.1,1.9c0,0.3-0.1,0.6-0.1,0.8
				c0,0.2-0.1,0.4-0.1,0.5l0,0c0,0,0,0,0,0c0,0,0,0,0,0l0,0c-0.1,0.3-0.4,0.6-0.7,0.7c-0.3,0.2-0.7,0.2-1.1,0l0,0l0,0
				c-0.2-0.1-0.3-0.3-0.4-0.5c-0.1-0.2-0.1-0.5,0-0.8l0,0c0-0.2,0.1-0.7,0.2-1.3c0-0.6,0.1-1.2,0.1-1.6c0-0.9,0-2,0-3.1
				c-0.6,0.1-1.4,0.2-2.2,0.2c-0.6,0-1.2,0-1.6-0.1l0,0l0,0c-0.2-0.1-0.4-0.2-0.6-0.4c-0.2-0.2-0.3-0.4-0.3-0.7
				c-0.1,0.1-0.2,0.2-0.2,0.3l0,0c-0.1,0.2-0.3,0.4-0.5,0.7c0.2,0.2,0.3,0.3,0.5,0.4c0.3,0.1,0.6,0.4,0.9,0.7c0.5,0.5,0.9,0.8,1.1,1
				l0,0l0,0c0.2,0.2,0.3,0.4,0.4,0.6c0.1,0.2,0.1,0.4,0.1,0.7l0,0l0,0c-0.1,0.6-0.6,1.1-1.3,1.1l0,0l0,0c-0.1,0-0.2,0-0.3-0.1
				c-0.1,0-0.2-0.1-0.3-0.2c0,0,0,0,0,0c0,0,0,0,0,0s0,0,0,0c0,0,0,0,0,0c0,0,0,0,0,0c0,0,0,0,0,0c0,0,0,0,0,0c0,0,0,0,0,0
				c0,0,0,0,0,0c0,0,0,0,0,0c0,0,0,0,0,0c0,0,0,0,0,0c0,0,0,0,0,0c0,0,0,0,0,0c0,0,0,0,0,0c0,0,0,0,0,0c0,0,0,0,0,0c0,0,0,0,0,0
				c0,0,0,0,0,0c0,0,0,0,0,0s0,0,0,0c0,0,0,0,0,0c0,0,0,0,0,0c0,0,0,0,0,0c0,0,0,0,0,0c0,0,0,0,0,0c0,0,0,0,0,0c0,0,0,0,0,0
				c0,0,0,0,0,0c0,0,0,0,0,0c0,0,0,0,0,0c0,0,0,0,0,0c0,0,0,0,0,0c0,0,0,0,0,0c0,0,0,0,0,0c0,0,0,0,0,0c0,0,0,0,0,0c0,0,0,0,0,0
				c0,0,0,0,0,0c0,0,0,0,0,0c0,0,0,0,0,0c0,0,0,0,0,0c0,0,0,0,0,0c0,0,0,0,0,0c0,0,0,0,0,0c0,0,0,0,0,0c0,0,0,0,0,0c0,0,0,0,0,0
				c0,0,0,0,0,0c0,0,0,0,0,0c0,0,0,0,0,0c0,0,0,0,0,0c0,0,0,0,0,0c0,0,0,0,0,0c0,0,0,0,0,0c0,0,0,0,0,0c0,0,0,0,0,0c0,0,0,0,0,0
				c0,0,0,0,0,0c0,0,0,0,0,0c0,0,0,0,0,0c0,0,0,0,0,0c0,0,0,0,0,0c0,0,0,0,0,0c0,0,0,0,0,0s0,0,0,0c0,0,0,0,0,0c0,0,0,0,0,0
				c0,0,0,0,0,0c0,0,0,0,0,0c0,0,0,0,0,0c0,0,0,0,0,0c0,0,0,0,0,0c0,0,0,0,0,0c0,0,0,0,0,0c0,0,0,0,0,0c0,0,0,0,0,0c0,0,0,0,0,0
				c0,0,0,0,0,0c0,0,0,0,0,0c0,0,0,0,0,0c0,0,0,0,0,0c0,0,0,0,0,0c0,0,0,0,0,0c0,0,0,0,0,0c0,0,0,0,0,0c0,0,0,0,0,0c0,0,0,0,0,0
				c0,0,0,0,0,0c0,0,0,0,0,0c0,0,0,0,0,0c0,0,0,0,0,0s0,0,0,0c0,0,0,0,0,0c0,0,0,0,0,0c0,0,0,0,0,0c0,0,0,0,0,0c0,0,0,0,0,0s0,0,0,0
				c0,0,0,0,0,0c0,0,0,0,0,0c0,0,0,0,0,0s0,0,0,0c0,0,0,0,0,0c0,0,0,0,0,0c0,0,0,0,0,0s0,0,0,0c0,0,0,0,0,0s0,0,0,0c0,0,0,0,0,0
				c0,0,0,0,0,0c0,0,0,0,0,0c0,0,0,0,0,0c0,0,0,0,0,0c0,0,0,0,0,0c0,0,0,0,0,0c0,0,0,0,0,0c0,0,0,0,0,0c0,0,0,0,0,0c0,0,0,0,0,0
				c0,0,0,0,0,0c0,0,0,0,0,0c0,0,0,0,0,0c0,0,0,0,0,0c0,0,0,0,0,0s0,0,0,0c0,0,0,0,0,0c0,0,0,0,0,0c0,0,0,0,0,0s0,0,0,0c0,0,0,0,0,0
				s0,0,0,0c0,0,0,0,0,0c0,0,0,0,0,0c0,0,0,0,0,0c0,0,0,0,0,0c0,0,0,0,0,0c0,0,0,0,0,0c0,0,0,0,0,0c0,0,0,0,0,0c0,0,0,0,0,0
				c0,0,0,0,0,0c0,0,0,0,0,0c0,0,0,0,0,0c0,0,0,0,0,0c0,0,0,0,0,0c0,0,0,0,0,0c0,0,0,0,0,0c0,0,0,0,0,0c0,0,0,0,0,0c0,0,0,0,0,0
				c0,0,0,0,0,0c0,0,0,0,0,0c0,0,0,0,0,0c0,0,0,0,0,0c0,0,0,0,0,0c0,0,0,0,0,0s0,0,0,0c0,0,0,0,0,0c0,0,0,0,0,0c0,0,0,0,0,0
				c0,0,0,0,0,0c0,0,0,0,0,0c0,0,0,0,0,0c0,0,0,0,0,0c0,0,0,0,0,0c0,0,0,0,0,0c0,0,0,0,0,0c0,0,0,0,0,0c0,0,0,0,0,0c0,0,0,0,0,0
				s0,0,0,0c0,0,0,0,0,0c0,0,0,0,0,0s0,0,0,0c0,0,0,0,0,0c0,0,0,0,0,0c0,0,0,0,0,0c0,0,0,0,0,0c0,0,0,0,0,0c0,0,0,0,0,0c0,0,0,0,0,0
				c0,0,0,0,0,0c0,0,0,0,0,0c0,0,0,0,0,0c0,0,0,0,0,0c0,0,0,0,0,0c0,0,0,0,0,0c0,0,0,0,0,0c0,0,0,0,0,0c0,0,0,0,0,0c0,0,0,0,0,0
				c0,0,0,0,0,0c0,0,0,0,0,0c0,0,0,0,0,0c0,0,0,0,0,0c0,0,0,0,0,0c0,0,0,0,0,0c0,0,0,0,0,0c0,0,0,0,0,0c0,0,0,0,0,0c0,0,0,0,0,0
				c0,0,0,0,0,0c0,0,0,0,0,0c0,0,0,0,0,0c0,0,0,0,0,0c0,0,0,0,0,0c0,0,0,0,0,0c0,0,0,0,0,0c0,0,0,0,0,0c0,0,0,0,0,0c0,0,0,0,0,0
				c0,0,0,0,0,0c0,0,0,0,0,0c0,0,0,0,0,0c0,0,0,0,0,0c0,0,0,0,0,0c0,0,0,0,0,0c0,0,0,0,0,0c0,0,0,0,0,0c0,0,0,0,0,0c0,0,0,0,0,0
				s0,0,0,0c0,0,0,0,0,0c0,0,0,0,0,0c0,0,0,0,0,0c0,0,0,0,0,0c0,0,0,0,0,0c0,0,0,0,0,0c0,0,0,0,0,0c0,0,0,0,0,0c0,0,0,0,0,0
				c0,0,0,0,0,0c0,0,0,0,0,0c0,0,0,0,0,0c0,0,0,0,0,0c0,0,0,0,0,0c0,0,0,0,0,0c0,0,0,0,0,0c0,0,0,0,0,0c0,0,0,0,0,0c0,0,0,0,0,0
				c0,0,0,0,0,0c0,0,0,0,0,0c0,0,0,0,0,0c0,0,0,0,0,0c0,0,0,0,0,0c0,0,0,0,0,0c0,0,0,0,0,0c0,0,0,0,0,0c0,0,0,0,0,0c0,0,0,0,0,0
				c0,0,0,0,0,0c0,0,0,0,0,0c0,0,0,0,0,0c0,0,0,0,0,0c0,0,0,0,0,0c0,0,0,0,0,0c0,0,0,0,0,0c0,0,0,0,0,0c0,0,0,0,0,0c0,0,0,0,0,0
				c0,0,0,0,0,0c0,0,0,0,0,0c0,0,0,0,0,0s0,0,0,0c0,0,0,0,0,0c0,0,0,0,0,0c0,0,0,0,0,0c0,0,0,0,0,0c0,0,0,0,0,0c0,0,0,0,0,0
				c0,0,0,0,0,0c0,0,0,0,0,0c0,0,0,0,0,0c0,0,0,0,0,0c0,0,0,0,0,0c0,0,0,0,0,0c0,0,0,0,0,0c0,0,0,0,0,0c0,0,0,0,0,0c0,0,0,0,0,0
				c0,0,0,0,0,0c0,0,0,0,0,0c0,0,0,0,0,0c0,0,0,0,0,0c0,0,0,0,0,0s0,0,0,0c0,0,0,0,0,0c0,0,0,0,0,0c0,0,0,0,0,0c0,0,0,0,0,0
				c0,0,0,0,0,0c0,0,0,0,0,0c0,0,0,0,0,0c0,0,0,0,0,0c0,0,0,0,0,0c0,0,0,0,0,0c0,0,0,0,0,0c0,0,0,0,0,0c0,0,0,0,0,0c0,0,0,0,0,0
				c0,0,0,0,0,0c0,0,0,0,0,0c0,0,0,0,0,0s0,0,0,0c0,0,0,0,0,0s0,0,0,0c0,0,0,0,0,0s0,0,0,0c0,0,0,0,0,0s0,0,0,0c0,0,0,0,0,0
				c0,0,0,0,0,0c0,0,0,0,0,0s0,0,0,0c0,0,0,0,0,0c0,0,0,0,0,0s0,0,0,0c0,0,0,0,0,0s0,0,0,0c0,0,0,0,0,0s0,0,0,0s0,0,0,0s0,0,0,0
				c0,0,0,0,0,0s0,0,0,0s0,0,0,0c0,0,0,0,0,0c0,0,0,0,0,0s0,0,0,0s0,0,0,0s0,0,0,0c0,0,0,0,0,0c0,0,0,0,0,0s0,0,0,0c0,0,0,0,0,0
				s0,0,0,0s0,0,0,0s0,0,0,0c0,0,0,0,0,0s0,0,0,0s0,0,0,0s0,0,0,0c0,0,0,0,0,0s0,0,0,0c0,0,0,0,0,0s0,0,0,0c0,0,0,0,0,0s0,0,0,0
				c0,0,0,0,0,0s0,0,0,0c0,0,0,0,0,0s0,0,0,0s0,0,0,0s0,0,0,0s0,0,0,0c0,0,0,0,0,0c0,0,0,0,0,0c0,0,0,0,0,0s0,0,0,0s0,0,0,0
				c0,0,0,0,0,0c0,0,0,0,0,0s0,0,0,0c0,0,0,0,0,0c0,0,0,0,0,0s0,0,0,0c0,0,0,0,0,0s0,0,0,0s0,0,0,0c0,0,0,0,0,0s0,0,0,0c0,0,0,0,0,0
				s0,0,0,0c0,0,0,0,0,0c0,0,0,0,0,0c0,0,0,0,0,0c0,0,0,0,0,0c0,0,0,0,0,0c0,0,0,0,0,0s0,0,0,0c0,0,0,0,0,0s0,0,0,0c0,0,0,0,0,0
				c0,0,0,0,0,0s0,0,0,0c0,0,0,0,0,0c0,0,0,0,0,0c0,0,0,0,0,0s0,0,0,0c0,0,0,0,0,0c0,0,0,0,0,0c0,0,0,0,0,0c0,0,0,0,0,0c0,0,0,0,0,0
				c0,0,0,0,0,0c0,0,0,0,0,0c0,0,0,0,0,0c0,0,0,0,0,0c0,0,0,0,0,0c0,0,0,0,0,0c0,0,0,0,0,0c0,0,0,0,0,0c0,0,0,0,0,0c0,0,0,0,0,0
				c0,0,0,0,0,0c0,0,0,0,0,0c0,0,0,0,0,0c0,0,0,0,0,0c0,0,0,0,0,0c0,0,0,0,0,0c0,0,0,0,0,0c0,0,0,0,0,0c0,0,0,0,0,0c0,0,0,0,0,0
				c0,0,0,0,0,0c0,0,0,0,0,0c0,0,0,0,0,0c0,0,0,0,0,0c0,0,0,0,0,0c0,0,0,0,0,0c0,0,0,0,0,0c0,0,0,0,0,0c0,0,0,0,0,0c0,0,0,0,0,0
				c0,0,0,0,0,0c0,0,0,0,0,0c0,0,0,0,0,0c0,0,0,0,0,0c0,0,0,0,0,0c0,0,0,0,0,0c0,0,0,0,0,0c0,0,0,0,0,0c0,0,0,0,0,0c0,0,0,0,0,0
				c0,0,0,0,0,0c0,0,0,0,0,0c0,0,0,0,0,0c0,0,0,0,0,0c0,0,0,0,0,0c0,0,0,0,0,0c0,0,0,0,0,0c0,0,0,0,0,0c0,0,0,0,0,0c0,0,0,0,0,0
				c0,0,0,0,0,0c0,0,0,0,0,0c0,0,0,0,0,0c0,0,0,0,0,0c0,0,0,0,0,0c0,0,0,0,0,0c0,0,0,0,0,0c0,0,0,0,0,0c0,0,0,0,0,0c0,0,0,0,0,0
				c0,0,0,0,0,0c0,0,0,0,0,0c0,0,0,0,0,0c0,0,0,0,0,0c0,0,0,0,0,0c0,0,0,0,0,0c0,0,0,0,0,0c0,0,0,0,0,0c0,0,0,0,0,0c0,0,0,0,0,0
				c0,0,0,0,0,0c0,0,0,0,0,0c0,0,0,0,0,0c0,0,0,0,0,0c0,0,0,0,0,0c0,0,0,0,0,0c0,0,0,0,0,0c0,0,0,0,0,0c0,0,0,0,0,0c0,0,0,0,0,0
				c0,0,0,0,0,0c0,0,0,0,0,0c0,0,0,0,0,0c0,0,0,0,0,0c0,0,0,0,0,0c0,0,0,0,0,0c0,0,0,0,0,0c0,0,0,0,0,0c0,0,0,0,0,0c0,0,0,0,0,0
				c0,0,0,0,0,0c0,0,0,0,0,0c0,0,0,0,0,0c0,0,0,0,0,0c0,0,0,0,0,0c0,0,0,0,0,0c0,0,0,0,0,0c0,0,0,0,0,0c0,0,0,0,0,0c0,0,0,0,0,0
				c0,0,0,0,0,0c0,0,0,0,0,0c0,0,0,0,0,0c0,0,0,0,0,0c0,0,0,0,0,0c0,0,0,0,0,0c0,0,0,0,0,0c0,0,0,0,0,0c0,0,0,0,0,0c0,0,0,0,0,0
				c0,0,0,0,0,0c0,0,0,0,0,0c0,0,0,0,0,0c0,0,0,0,0,0c0,0,0,0,0,0c0,0,0,0,0,0l0,0l0,0c-0.4-0.5-0.8-0.8-1.1-1.1l0,0l0,0
				c-0.2-0.2-0.4-0.4-0.6-0.5c-0.2-0.1-0.4-0.3-0.6-0.4c-0.4,0.5-0.9,0.9-1.4,1.3l0,0c-0.8,0.7-2.3,2-3.1,2.5l0,0l0,0
				c-0.7,0.3-1.3,0.5-1.7,0.5v0c0,0,0,0,0,0c0,0,0,0,0,0l0,0c-0.7-0.1-1.1-0.7-1-1.4l0,0l0,0c0.1-0.4,0.3-0.6,0.6-0.8c0,0,0,0,0,0
				c0,0,0,0,0,0c0,0,0,0,0,0c0,0,0,0,0,0c0,0,0,0,0,0c0,0,0,0,0,0c0,0,0,0,0,0c0,0,0,0,0,0c0,0,0,0,0,0c0,0,0,0,0,0c0,0,0,0,0,0
				c0,0,0,0,0,0c0,0,0,0,0,0c0,0,0,0,0,0c0,0,0,0,0,0c0,0,0,0,0,0c0,0,0,0,0,0c0,0,0,0,0,0c0,0,0,0,0,0c0,0,0,0,0,0c0,0,0,0,0,0
				c0,0,0,0,0,0c0,0,0,0,0,0c0,0,0,0,0,0c0,0,0,0,0,0c0,0,0,0,0,0c0,0,0,0,0,0c0,0,0,0,0,0c0,0,0,0,0,0c0,0,0,0,0,0c0,0,0,0,0,0
				c0,0,0,0,0,0c0,0,0,0,0,0c0,0,0,0,0,0c0,0,0,0,0,0c0,0,0,0,0,0c0,0,0,0,0,0c0,0,0,0,0,0c0,0,0,0,0,0c0,0,0,0,0,0c0,0,0,0,0,0
				c0,0,0,0,0,0c0,0,0,0,0,0c0,0,0,0,0,0c0,0,0,0,0,0c0,0,0,0,0,0c0,0,0,0,0,0c0,0,0,0,0,0c0,0,0,0,0,0c0,0,0,0,0,0c0,0,0,0,0,0
				c0,0,0,0,0,0c0,0,0,0,0,0c0,0,0,0,0,0s0,0,0,0c0,0,0,0,0,0c0,0,0,0,0,0c0,0,0,0,0,0c0,0,0,0,0,0c0,0,0,0,0,0s0,0,0,0c0,0,0,0,0,0
				c0,0,0,0,0,0c0,0,0,0,0,0c0,0,0,0,0,0c0,0,0,0,0,0c0,0,0,0,0,0c0,0,0,0,0,0c0,0,0,0,0,0c0,0,0,0,0,0c0,0,0,0,0,0c0,0,0,0,0,0
				c0,0,0,0,0,0c0,0,0,0,0,0c0,0,0,0,0,0c0,0,0,0,0,0c0,0,0,0,0,0c0,0,0,0,0,0c0,0,0,0,0,0c0,0,0,0,0,0c0,0,0,0,0,0c0,0,0,0,0,0
				c0,0,0,0,0,0c0,0,0,0,0,0c0,0,0,0,0,0c0,0,0,0,0,0c0,0,0,0,0,0c0,0,0,0,0,0c0,0,0,0,0,0c0,0,0,0,0,0c0,0,0,0,0,0c0,0,0,0,0,0
				c0,0,0,0,0,0c0,0,0,0,0,0c0,0,0,0,0,0c0,0,0,0,0,0c0,0,0,0,0,0c0,0,0,0,0,0c0,0,0,0,0,0c0,0,0,0,0,0c0,0,0,0,0,0c0,0,0,0,0,0
				c0,0,0,0,0,0c0,0,0,0,0,0c0,0,0,0,0,0c0,0,0,0,0,0c0,0,0,0,0,0c0,0,0,0,0,0c0,0,0,0,0,0c0,0,0,0,0,0c0,0,0,0,0,0c0,0,0,0,0,0
				s0,0,0,0c0,0,0,0,0,0c0,0,0,0,0,0c0,0,0,0,0,0c0,0,0,0,0,0c0,0,0,0,0,0c0,0,0,0,0,0c0,0,0,0,0,0c0,0,0,0,0,0c0,0,0,0,0,0
				c0,0,0,0,0,0c0,0,0,0,0,0c0,0,0,0,0,0c0,0,0,0,0,0c0,0,0,0,0,0c0,0,0,0,0,0c0,0,0,0,0,0c0,0,0,0,0,0c0,0,0,0,0,0c0,0,0,0,0,0
				c0,0,0,0,0,0c0,0,0,0,0,0c0,0,0,0,0,0c0,0,0,0,0,0c0,0,0,0,0,0c0,0,0,0,0,0c0,0,0,0,0,0c0,0,0,0,0,0c0,0,0,0,0,0c0,0,0,0,0,0
				c0,0,0,0,0,0c0,0,0,0,0,0c0,0,0,0,0,0c0,0,0,0,0,0c0,0,0,0,0,0c0,0,0,0,0,0c0,0,0,0,0,0c0,0,0,0,0,0c0,0,0,0,0,0c0,0,0,0,0,0
				c0,0,0,0,0,0c0,0,0,0,0,0c0,0,0,0,0,0c0,0,0,0,0,0c0,0,0,0,0,0c0,0,0,0,0,0c0,0,0,0,0,0c0,0,0,0,0,0c0,0,0,0,0,0s0,0,0,0
				c0,0,0,0,0,0c0,0,0,0,0,0c0,0,0,0,0,0c0,0,0,0,0,0c0,0,0,0,0,0c0,0,0,0,0,0c0,0,0,0,0,0c0,0,0,0,0,0c0,0,0,0,0,0c0,0,0,0,0,0
				c0,0,0,0,0,0c0,0,0,0,0,0c0,0,0,0,0,0c0,0,0,0,0,0c0,0,0,0,0,0c0,0,0,0,0,0c0,0,0,0,0,0c0,0,0,0,0,0c0,0,0,0,0,0c0,0,0,0,0,0
				c0,0,0,0,0,0c0,0,0,0,0,0c0,0,0,0,0,0c0,0,0,0,0,0c0,0,0,0,0,0c0,0,0,0,0,0c0,0,0,0,0,0c0,0,0,0,0,0c0,0,0,0,0,0c0,0,0,0,0,0
				c0,0,0,0,0,0c0,0,0,0,0,0c0,0,0,0,0,0c0,0,0,0,0,0c0,0,0,0,0,0c0,0,0,0,0,0c0,0,0,0,0,0c0,0,0,0,0,0c0,0,0,0,0,0c0,0,0,0,0,0
				c0,0,0,0,0,0c0,0,0,0,0,0c0,0,0,0,0,0c0,0,0,0,0,0c0,0,0,0,0,0s0,0,0,0c0,0,0,0,0,0c0,0,0,0,0,0c0,0,0,0,0,0c0,0,0,0,0,0
				c0,0,0,0,0,0s0,0,0,0c0,0,0,0,0,0c0,0,0,0,0,0c0,0,0,0,0,0c0,0,0,0,0,0c0,0,0,0,0,0s0,0,0,0c0,0,0,0,0,0c0,0,0,0,0,0c0,0,0,0,0,0
				c0,0,0,0,0,0c0,0,0,0,0,0c0,0,0,0,0,0c0,0,0,0,0,0c0,0,0,0,0,0c0,0,0,0,0,0c0,0,0,0,0,0c0,0,0,0,0,0c0,0,0,0,0,0c0,0,0,0,0,0
				c0,0,0,0,0,0c0,0,0,0,0,0c0,0,0,0,0,0c0,0,0,0,0,0c0,0,0,0,0,0c0,0,0,0,0,0c0,0,0,0,0,0c0,0,0,0,0,0c0,0,0,0,0,0c0,0,0,0,0,0
				c0,0,0,0,0,0c0,0,0,0,0,0c0,0,0,0,0,0c0,0,0,0,0,0c0,0,0,0,0,0c0,0,0,0,0,0c0,0,0,0,0,0c0,0,0,0,0,0c0,0,0,0,0,0c0,0,0,0,0,0
				c0,0,0,0,0,0c0,0,0,0,0,0c0,0,0,0,0,0c0,0,0,0,0,0c0,0,0,0,0,0c0,0,0,0,0,0c0,0,0,0,0,0c0,0,0,0,0,0c0,0,0,0,0,0c0,0,0,0,0,0
				c0,0,0,0,0,0c0,0,0,0,0,0c0,0,0,0,0,0c0,0,0,0,0,0c0,0,0,0,0,0c0,0,0,0,0,0c0,0,0,0,0,0c0,0,0,0,0,0c0,0,0,0,0,0c0,0,0,0,0,0
				c0,0,0,0,0,0c0,0,0,0,0,0c0,0,0,0,0,0c0,0,0,0,0,0c0,0,0,0,0,0c0,0,0,0,0,0c0,0,0,0,0,0c0,0,0,0,0,0c0,0,0,0,0,0c0,0,0,0,0,0
				c0,0,0,0,0,0c0,0,0,0,0,0c0,0,0,0,0,0c0,0,0,0,0,0c0,0,0,0,0,0c0,0,0,0,0,0c0,0,0,0,0,0c0,0,0,0,0,0c0,0,0,0,0,0c0,0,0,0,0,0
				c0,0,0,0,0,0c0,0,0,0,0,0c0,0,0,0,0,0c0,0,0,0,0,0c0,0,0,0,0,0c0,0,0,0,0,0c0,0,0,0,0,0c0,0,0,0,0,0c0,0,0,0,0,0c0,0,0,0,0,0
				c0,0,0,0,0,0c0,0,0,0,0,0c0,0,0,0,0,0c0,0,0,0,0,0c0,0,0,0,0,0c0,0,0,0,0,0c0,0,0,0,0,0c0,0,0,0,0,0c0,0,0,0,0,0c0,0,0,0,0,0
				c0,0,0,0,0,0s0,0,0,0c0,0,0,0,0,0c0,0,0,0,0,0c0,0,0,0,0,0c0,0,0,0,0,0c0,0,0,0,0,0c0,0,0,0,0,0c0,0,0,0,0,0c0,0,0,0,0,0
				c0,0,0,0,0,0c0,0,0,0,0,0c0,0,0,0,0,0c0,0,0,0,0,0c0,0,0,0,0,0c0,0,0,0,0,0c0,0,0,0,0,0c0,0,0,0,0,0c0,0,0,0,0,0c0,0,0,0,0,0
				c0,0,0,0,0,0c0,0,0,0,0,0c0,0,0,0,0,0c0,0,0,0,0,0c0,0,0,0,0,0c0,0,0,0,0,0c0,0,0,0,0,0c0,0,0,0,0,0c0,0,0,0,0,0c0,0,0,0,0,0
				c0,0,0,0,0,0c0,0,0,0,0,0c0,0,0,0,0,0c0,0,0,0,0,0c0,0,0,0,0,0c0,0,0,0,0,0c0,0,0,0,0,0c0,0,0,0,0,0c0,0,0,0,0,0c0,0,0,0,0,0
				c0,0,0,0,0,0c0,0,0,0,0,0c0,0,0,0,0,0c0,0,0,0,0,0c0,0,0,0,0,0c0,0,0,0,0,0c0,0,0,0,0,0c0,0,0,0,0,0c0,0,0,0,0,0c0,0,0,0,0,0
				c0,0,0,0,0,0c0,0,0,0,0,0c0,0,0,0,0,0c0,0,0,0,0,0c0,0,0,0,0,0c0,0,0,0,0,0c0,0,0,0,0,0c0,0,0,0,0,0c0,0,0,0,0,0s0,0,0,0
				c0,0,0,0,0,0c0,0,0,0,0,0c0,0,0,0,0,0c0,0,0,0,0,0c0,0,0,0,0,0c0,0,0,0,0,0c0,0,0,0,0,0c0,0,0,0,0,0c0,0,0,0,0,0c0,0,0,0,0,0
				c0,0,0,0,0,0c0,0,0,0,0,0c0,0,0,0,0,0c0,0,0,0,0,0c0,0,0,0,0,0c0,0,0,0,0,0c0,0,0,0,0,0c0,0,0,0,0,0c0,0,0,0,0,0c0,0,0,0,0,0
				c0,0,0,0,0,0c0,0,0,0,0,0c0,0,0,0,0,0c0,0,0,0,0,0c0,0,0,0,0,0c0,0,0,0,0,0c0,0,0,0,0,0c0,0,0,0,0,0c0,0,0,0,0,0c0,0,0,0,0,0
				c0,0,0,0,0,0c0,0,0,0,0,0c0,0,0,0,0,0c0,0,0,0,0,0c0,0,0,0,0,0c0,0,0,0,0,0c0,0,0,0,0,0c0,0,0,0,0,0c0,0,0,0,0,0c0,0,0,0,0,0
				c0,0,0,0,0,0c0,0,0,0,0,0c0,0,0,0,0,0c0,0,0,0,0,0c0,0,0,0,0,0c0,0,0,0,0,0c0,0,0,0,0,0c0,0,0,0,0,0c0,0,0,0,0,0c0,0,0,0,0,0
				c0,0,0,0,0,0c0,0,0,0,0,0c0,0,0,0,0,0c0,0,0,0,0,0c0,0,0,0,0,0c0,0,0,0,0,0c0,0,0,0,0,0c0,0,0,0,0,0c0,0,0,0,0,0c0,0,0,0,0,0
				c0,0,0,0,0,0c0,0,0,0,0,0c0,0,0,0,0,0c0,0,0,0,0,0c0,0,0,0,0,0c0,0,0,0,0,0c0,0,0,0,0,0c0,0,0,0,0,0c0,0,0,0,0,0c0,0,0,0,0,0
				c0,0,0,0,0,0c0,0,0,0,0,0c0,0,0,0,0,0c0,0,0,0,0,0c0,0,0,0,0,0c0,0,0,0,0,0c0,0,0,0,0,0c0,0,0,0,0,0c0,0,0,0,0,0c0,0,0,0,0,0
				c0,0,0,0,0,0c0,0,0,0,0,0c0,0,0,0,0,0c0,0,0,0,0,0c0,0,0,0,0,0c0,0,0,0,0,0c0,0,0,0,0,0c0,0,0,0,0,0c0,0,0,0,0,0c0,0,0,0,0,0
				c0,0,0,0,0,0c0,0,0,0,0,0c0,0,0,0,0,0c0,0,0,0,0,0c0,0,0,0,0,0c0,0,0,0,0,0c0,0,0,0,0,0c0,0,0,0,0,0c0,0,0,0,0,0c0,0,0,0,0,0
				c0,0,0,0,0,0s0,0,0,0c0,0,0,0,0,0c0,0,0,0,0,0c0,0,0,0,0,0c0,0,0,0,0,0c0,0,0,0,0,0s0,0,0,0c0,0,0,0,0,0c0,0,0,0,0,0c0,0,0,0,0,0
				c0,0,0,0,0,0c0,0,0,0,0,0c0,0,0,0,0,0c0,0,0,0,0,0c0,0,0,0,0,0c0,0,0,0,0,0c0,0,0,0,0,0c0,0,0,0,0,0c0,0,0,0,0,0c0,0,0,0,0,0
				c0,0,0,0,0,0c0,0,0,0,0,0c0,0,0,0,0,0c0,0,0,0,0,0c0,0,0,0,0,0c0,0,0,0,0,0c0,0,0,0,0,0c0,0,0,0,0,0c0,0,0,0,0,0c0,0,0,0,0,0
				c0,0,0,0,0,0c0,0,0,0,0,0c0.4-0.2,0.8-0.4,1.5-0.9c1.2-1,1.8-1.6,2.7-2.6c0.1-0.1,0.1-0.2,0.2-0.4c0.1-0.2,0.2-0.4,0.3-0.5l0,0
				l0,0c0.2-0.2,0.4-0.4,0.8-0.5c0.1,0,0.3-0.1,0.5-0.4c0.4-0.5,0.8-1.1,1.1-1.6c-0.1,0-0.3,0-0.5,0.1l0,0v0
				c-1.5,0.2-1.9,0.2-3.2,0.3v0c-0.5,0-1,0-1.3-0.2c-0.4-0.2-0.6-0.6-0.7-1l0,0c0,0,0,0,0,0c0,0,0,0,0,0l0,0c-0.1-0.3,0-0.7,0.3-1
				c0.3-0.2,0.6-0.3,1-0.3c1.1,0,1.4,0,2.3-0.1l0,0c0.9-0.1,1.5-0.1,2.2-0.3c0.4-0.1,0.7-0.1,0.9-0.2l0,0l0,0c0.3,0,0.5-0.1,0.7-0.1
				c0.5,0,1.1,0.1,1.3,0.7c0.1,0.3,0.1,0.5,0.1,0.8c0,0.3-0.1,0.5-0.2,0.8l0,0c0,0,0,0,0,0c0,0,0,0,0,0l0,0
				c-0.2,0.4-0.5,0.9-0.8,1.4c0.2,0,0.4,0,0.6,0l0,0c0.8,0.1,0.9,0.1,1.4,0.1c0.7,0,1.5-0.1,1.9-0.2c0,0,0.1,0,0.1,0
				c0-0.9-0.1-2-0.1-3.3l0,0v0c0-0.4-0.1-0.8-0.5-1.2c-0.1-0.1-0.3-0.2-0.6-0.3c-0.3-0.1-0.5-0.2-0.9-0.3c-0.3-0.1-0.5-0.2-0.7-0.2
				c-0.3-0.1-0.5-0.2-0.9-0.3l0,0c-0.5-0.2-0.9-0.6-0.9-1l0,0c0,0,0,0,0,0c0,0,0,0,0,0h0c0-0.4,0.1-0.7,0.3-0.9l0,0c0,0,0,0,0,0
				c0,0,0,0,0,0l0,0c0.4-0.4,1-0.4,1.3-0.3l0,0c0.5,0.1,0.9,0.2,1.5,0.4l0,0c1.3,0.4,1.8,0.6,2.3,0.9c0,0,0,0,0,0c0,0,0,0,0,0l0,0
				c1.1,0.7,1.4,1.8,1.5,3h0c0,0,0,0,0,0c0,0,0,0,0,0h0c0.1,1.1,0.1,2.1,0.1,3.1l0,0C73.7,91.6,73.7,93.7,73.6,95.5L73.6,95.5z
				 M79.3,97.2L79.3,97.2c-0.3,0-0.6,0.1-0.8,0.1c-0.3,0-0.5,0-0.8-0.1l0,0l0,0c-0.6-0.1-1.3-0.5-1.7-1l0,0l0,0
				c-0.2-0.4-0.4-0.8-0.4-1.4c0-0.7,0.2-1.3,0.6-1.9l0,0c0,0,0,0,0,0c0,0,0,0,0,0l0,0c0.7-1.2,1.5-2.3,2-2.9l0,0
				c0.3-0.4,0.6-0.7,0.9-1c0.2-0.3,0.3-0.4,0.4-0.5c0.1-0.2,0.2-0.5,0.3-0.8c0-0.2,0.1-0.4,0.2-0.5c0-0.1,0.1-0.2,0.2-0.3l0,0
				c0,0,0,0,0,0c0,0,0,0,0,0l0,0c0.2-0.2,0.4-0.3,0.6-0.3c0.4,0,0.8,0.1,1,0.3c0.3,0.2,0.4,0.6,0.4,0.9c0,0.2,0,0.4-0.1,0.6
				c0,0,0,0,0,0c0.5,0.2,0.9,0.4,1.5,0.9l0,0c0.1,0.1,0.2,0.1,0.3,0.2c0.1,0,0.1,0.1,0.2,0.1c0.1,0.1,0.1,0.1,0.2,0.2l0,0l0,0
				c0.2,0.3,0.4,0.5,0.6,0.6l0,0l0,0c0.5,0.7,0.8,1.4,0.9,2.4h0c0,0,0,0,0,0c0,0,0,0,0,0h0c0,0.8-0.4,1.9-1.3,2.5l0,0
				c-0.7,0.5-1.2,0.7-2,1.1l0,0l0,0C81.4,96.8,80.2,97.1,79.3,97.2L79.3,97.2z M90.1,104.5c-0.2,0.3-0.5,0.5-0.7,0.6l0,0
				c0,0,0,0,0,0c0,0,0,0,0,0l0,0c-0.4,0.3-1,0.6-1.6,0.8c-0.6,0.2-1.3,0.3-1.9,0.3c-1.1,0-2.2-0.3-2.9-0.8l0,0
				c-0.5-0.3-1.1-0.8-1.6-1.5l0,0c-0.3-0.3-0.7-0.8-1.1-1.4c-0.3-0.4-0.6-0.8-0.8-1.2l0,0c0,0,0,0,0,0c0,0,0,0,0,0l0,0
				c-0.1-0.2-0.2-0.5-0.2-0.7c0-0.3,0.2-0.5,0.4-0.6l0,0c0,0,0,0,0.1-0.1c0,0,0,0,0,0l0,0c0.3-0.2,0.6-0.3,0.9-0.3l0,0c0,0,0,0,0,0
				c0,0,0,0,0,0l0,0c0.5,0,0.8,0.4,1,0.5l0,0l0,0c0.3,0.4,0.6,0.8,0.9,1.2l0,0c0.4,0.6,0.9,1.2,1.4,1.7c0.6,0.6,1.2,0.8,1.8,0.8l0,0
				l0,0c0.6,0,1.2-0.1,1.8-0.5c0.2-0.2,0.5-0.5,0.8-0.6c0.3-0.2,0.6-0.3,0.9-0.4l0,0c0,0,0,0,0,0c0,0,0,0,0,0v0
				c0.3,0,0.6,0.1,0.8,0.2l0,0c0,0,0,0,0,0c0,0,0,0,0,0l0,0c0.2,0.2,0.4,0.4,0.4,0.7l0,0l0,0C90.6,103.8,90.4,104.2,90.1,104.5z
				 M90.6,95.7L90.6,95.7L90.6,95.7c0,0.5-0.1,1.2-0.2,1.8c0,0.3-0.1,0.6-0.1,0.9c0,0.2-0.1,0.4-0.1,0.6l0,0c0,0,0,0,0,0
				c0,0,0,0,0,0l0,0c-0.1,0.3-0.4,0.6-0.7,0.7c-0.3,0.2-0.7,0.2-1.1,0l0,0l0,0c-0.2-0.1-0.3-0.3-0.4-0.5c-0.1-0.2-0.1-0.5,0-0.8l0,0
				c0-0.2,0.1-0.7,0.2-1.3c0-0.6,0.1-1.2,0.1-1.6c0-1.5,0-2.9,0-4.3c0-1-0.1-2.4-0.1-4.2l0,0v0c0-0.4-0.1-0.8-0.5-1.2
				c-0.1-0.1-0.3-0.2-0.6-0.3c-0.3-0.1-0.5-0.2-0.9-0.3c-0.3-0.1-0.5-0.2-0.7-0.2c-0.3-0.1-0.5-0.2-0.9-0.3l0,0
				c-0.5-0.2-0.9-0.6-0.9-1l0,0c0,0,0,0,0,0c0,0,0,0,0,0h0c0-0.4,0.1-0.7,0.3-0.9l0,0c0,0,0,0,0,0c0,0,0,0,0,0l0,0
				c0.4-0.4,1-0.4,1.3-0.3l0,0c0.5,0.1,0.9,0.2,1.5,0.4l0,0c1.3,0.4,1.8,0.6,2.3,0.9l0,0c0,0,0,0,0,0c0,0,0,0,0,0l0,0
				c1.1,0.7,1.4,1.8,1.5,3h0c0,0,0,0,0,0c0,0,0,0,0,0c0.1,1.3,0.1,2.5,0.1,3.6h0C90.7,92,90.7,93.8,90.6,95.7z M64.2,41.7
				c-16.7-2.4-32.5,1.1-44.2,8.6c8.1-16.5,25.9-27.2,45.6-25.8C89.8,26.4,108.4,46,109,69.4C100.7,55.5,84.3,44.6,64.2,41.7z"/>
			<polygon class="st0" points="82.3,101.6 82.3,101.6 82.3,101.6 			"/>
			<polygon class="st0" points="77.7,96.8 77.6,97.2 77.7,96.8 			"/>
			<polygon class="st0" points="82.9,93.9 82.9,93.9 82.9,93.9 			"/>
			<polygon class="st0" points="84.1,95 84.1,95 84.3,95.4 84.1,95 			"/>
			<polygon class="st0" points="78.4,90.2 78.1,90 78.4,90.2 			"/>
			<polygon class="st0" points="83.2,89.6 83.2,89.6 83.2,89.6 			"/>
			<polygon class="st0" points="80.3,87.1 80.3,87.1 80.3,87.1 			"/>
			<path class="st0" d="M83.1,93.2c0.1-0.1,0.1-0.3,0.1-0.4l0,0h0c0-0.2-0.1-0.5-0.4-0.9c-0.3-0.4-0.7-0.7-1.2-1.1l0,0l0,0
				c-0.1-0.1-0.3-0.2-0.5-0.2c-0.1,0-0.3,0.1-0.7,0.4c-0.3,0.3-0.7,0.7-1.1,1.2c-0.3,0.4-0.6,0.9-0.9,1.3c-0.1,0.2-0.2,0.4-0.3,0.6
				C78,94.3,78,94.4,78,94.5v0.2c0,0.1,0,0.1,0.1,0.2c0.1,0,0.2,0.1,0.6,0.1l0,0l0,0c1.6-0.1,3.1-0.6,4.1-1.3
				C82.9,93.4,83,93.3,83.1,93.2z"/>
			<polygon class="st0" points="81.5,88.6 81.5,88.6 81.5,88.6 			"/>
			<polygon class="st0" points="83.6,92.7 83.2,92.7 83.6,92.7 			"/>
		</g>
		<g>
			<path class="st0" d="M77.3,9.5c0.1-0.1,0.2-0.1,0.3,0c0.1,0,0.2,0.1,0.2,0.2c0.1,0.1,0.2,0.3,0.2,0.4c0.1,0.2,0.1,0.3,0.1,0.5
				l-0.4,2.9c0,0.1,0,0.2,0,0.3c0,0.1,0,0.2-0.1,0.3c0,0.1-0.1,0.1-0.1,0.2c-0.1,0.1-0.1,0.1-0.2,0.1c-0.1,0-0.1,0-0.1-0.1
				c0-0.1-0.1-0.1-0.1-0.2c0-0.1,0-0.2,0-0.2c0-0.1,0-0.1,0-0.2l0.3-2.8c0-0.1,0-0.2,0-0.3c0-0.1,0-0.2-0.1-0.3
				c0-0.1-0.1-0.2-0.1-0.3C77.2,9.7,77.2,9.6,77.3,9.5z"/>
			<path class="st0" d="M85.3,12.1l-0.1,0.3c0,0,0.1,0,0.1,0c0,0,0.1,0,0.2,0c0,0,0.1,0,0.1,0c0,0,0.1,0,0.1,0s0.1,0,0.1,0
				c0,0,0.1,0,0.1,0c0.1,0,0.2,0.1,0.2,0.1c0,0.1,0,0.1,0,0.2c0,0.1-0.1,0.2-0.1,0.2c-0.1,0-0.1,0-0.2,0c0,0,0,0-0.1,0
				c0,0-0.1,0-0.1,0c0,0-0.1,0-0.1,0s-0.1,0-0.2,0c0,0,0,0-0.1,0c0,0,0,0-0.1,0c0,0,0,0-0.1,0c0,0,0,0-0.1,0l-0.3,1.5
				c0,0.1-0.1,0.2-0.1,0.3s-0.1,0.2-0.1,0.3c0,0.1-0.1,0.2-0.2,0.2c-0.1,0.1-0.1,0.1-0.2,0.1c-0.1,0-0.1-0.1-0.2-0.3
				c0-0.2,0-0.4,0.1-0.7l0.3-1.5c-0.1,0-0.1,0-0.2,0c-0.1,0-0.1,0-0.2,0c-0.1,0-0.2,0-0.2-0.1c-0.1,0-0.1-0.1-0.1-0.2
				c0-0.1,0-0.1,0-0.2c0-0.1,0-0.1,0.1-0.2c0,0,0.1,0,0.1,0c0,0,0.1,0,0.2,0c0.1,0,0.1,0,0.2,0c0.1,0,0.1,0,0.2,0l0.2,0l0.1-0.2
				c0-0.2,0.1-0.4,0.2-0.5c0.1-0.2,0.2-0.3,0.3-0.4s0.3-0.2,0.5-0.2c0.2,0,0.4,0,0.6,0c0.1,0,0.2,0.1,0.2,0.1c0,0.1,0,0.1,0,0.2
				c0,0.1-0.1,0.2-0.1,0.2s-0.1,0.1-0.2,0.1c-0.2,0-0.4,0-0.5,0.1C85.4,11.7,85.3,11.8,85.3,12.1z"/>
			<path class="st0" d="M98.9,15.5c0.1,0,0.2,0,0.3,0.1c0.1,0.1,0.1,0.1,0.2,0.2c0,0.2,0,0.3,0,0.5c0,0.2,0,0.3-0.1,0.5l-1.4,2.6
				c0,0.1-0.1,0.1-0.1,0.2c-0.1,0.1-0.1,0.1-0.2,0.2c-0.1,0.1-0.1,0.1-0.2,0.1c-0.1,0-0.1,0-0.2,0c0,0-0.1-0.1-0.1-0.1
				c0-0.1,0-0.1,0-0.2c0-0.1,0-0.1,0.1-0.2c0-0.1,0.1-0.1,0.1-0.2l1.3-2.5c0-0.1,0.1-0.2,0.1-0.3c0-0.1,0.1-0.2,0.1-0.3
				c0-0.1,0-0.2,0-0.3C98.8,15.6,98.8,15.5,98.9,15.5z"/>
			<path class="st0" d="M111,25.7c0.1,0.1,0.2,0.2,0.3,0.3c0.1,0.1,0.2,0.2,0.2,0.3c0.1,0.1,0.1,0.2,0.1,0.4c0,0.1,0,0.2,0,0.4
				c0,0.1-0.1,0.1-0.1,0.2s-0.1,0.1-0.2,0.1c-0.1,0-0.2-0.1-0.2-0.1c0-0.1-0.1-0.1-0.1-0.2c0-0.1,0-0.3-0.1-0.4
				c-0.1-0.1-0.2-0.3-0.3-0.4c-0.2-0.2-0.3-0.3-0.4-0.3c-0.1-0.1-0.2,0-0.3,0c-0.1,0.1-0.1,0.2,0,0.3c0.1,0.1,0.1,0.3,0.2,0.4
				c0,0,0.1,0.1,0.1,0.1c0,0,0.1,0.1,0.1,0.1c0,0,0.1,0.1,0.1,0.2c0,0.1,0.1,0.1,0.1,0.2c0.2,0.3,0.3,0.5,0.3,0.8
				c0,0.2-0.1,0.4-0.3,0.6c-0.2,0.2-0.4,0.3-0.7,0.2c-0.3,0-0.6-0.2-1-0.6c-0.2-0.2-0.4-0.4-0.5-0.7c-0.1-0.3-0.2-0.5-0.2-0.7
				c0-0.1,0-0.1,0.1-0.2c0.1-0.1,0.1-0.1,0.2-0.1c0.1,0,0.2,0.1,0.2,0.1c0,0.1,0.1,0.1,0.1,0.2c0,0.2,0.1,0.4,0.2,0.5
				c0.1,0.1,0.2,0.3,0.3,0.4c0.1,0.1,0.3,0.3,0.4,0.3c0.2,0.1,0.3,0.1,0.4,0c0.1-0.1,0.1-0.2,0.1-0.3c0-0.1-0.1-0.3-0.2-0.4
				c0-0.1-0.1-0.1-0.1-0.2c0,0-0.1-0.1-0.1-0.1c0,0-0.1-0.1-0.1-0.2c0-0.1-0.1-0.1-0.1-0.2c-0.1-0.3-0.2-0.5-0.3-0.7
				c0-0.2,0-0.4,0.2-0.6c0.2-0.2,0.5-0.3,0.8-0.3C110.4,25.2,110.7,25.4,111,25.7z"/>
			<path class="st0" d="M115.8,31.9l0.1,0.1l0.4-0.3c0.1,0,0.1-0.1,0.2-0.2c0.1-0.1,0.1-0.1,0.2-0.2c0.1-0.1,0.1-0.2,0.2-0.3
				c0.1-0.1,0.2-0.1,0.3-0.1c0.1,0,0.1,0.1,0.2,0.2c0,0.1,0.1,0.2,0,0.3c0,0.2-0.1,0.3-0.2,0.4c-0.1,0.1-0.2,0.3-0.3,0.3l-0.6,0.4
				c0,0,0,0,0,0.1c0,0,0,0,0,0.1c0,0,0,0,0,0.1s0,0,0.1,0.1c0,0,0,0,0.1,0.1c0,0,0,0,0.1,0.1c0,0,0,0,0.1,0.1c0,0,0,0,0.1,0.1
				c0.1,0.1,0.1,0.2,0.1,0.2c0,0.1-0.1,0.1-0.1,0.2c-0.1,0.1-0.2,0.1-0.2,0.1c-0.1,0-0.1-0.1-0.2-0.1c0,0,0,0,0-0.1s0,0-0.1-0.1
				c0,0,0-0.1-0.1-0.1c0,0-0.1-0.1-0.1-0.1c0,0,0,0,0,0s0,0,0,0c0,0,0,0,0,0c0,0,0,0,0,0l-1,0.7c-0.2,0.1-0.3,0.3-0.3,0.4
				s0,0.3,0.2,0.5c0,0.1,0.1,0.1,0,0.2c0,0.1-0.1,0.1-0.1,0.2c-0.1,0-0.1,0-0.2,0.1c-0.1,0-0.1,0-0.2-0.1c-0.1-0.2-0.2-0.4-0.3-0.6
				c0-0.2,0-0.3,0-0.5c0-0.2,0.1-0.3,0.2-0.4c0.1-0.1,0.3-0.3,0.4-0.4l0.8-0.6c0,0-0.1-0.1-0.1-0.1c0,0-0.1-0.1-0.1-0.2
				c-0.1-0.1-0.1-0.1-0.1-0.2c0-0.1,0-0.1,0-0.2c0-0.1,0.1-0.1,0.1-0.2c0,0,0.1-0.1,0.1-0.1c0,0,0.1,0,0.1,0s0.1,0.1,0.1,0.1
				c0,0,0.1,0.1,0.1,0.2S115.8,31.9,115.8,31.9z"/>
			<path class="st0" d="M118.4,41.6c-0.1-0.1-0.2-0.2-0.4-0.3c-0.1-0.1-0.2-0.3-0.3-0.4c-0.2-0.4-0.3-0.8-0.2-1
				c0.1-0.3,0.3-0.5,0.5-0.6c0.3-0.1,0.6-0.1,0.9,0c0.3,0.2,0.5,0.5,0.7,0.9c0,0.1,0.1,0.2,0.1,0.4s0,0.2,0,0.4l0,0
				c0.2-0.1,0.4-0.2,0.4-0.4c0.1-0.2,0-0.4-0.1-0.7c-0.1-0.1-0.1-0.3-0.2-0.3c-0.1-0.1-0.2-0.2-0.3-0.2c-0.1,0-0.1-0.1-0.1-0.2
				c0-0.1,0-0.2,0.1-0.2c0.1-0.1,0.1-0.1,0.2-0.1s0.2,0,0.2,0.1c0.1,0.1,0.3,0.2,0.4,0.3c0.1,0.1,0.2,0.3,0.3,0.5
				c0.2,0.4,0.2,0.8,0.1,1.1c-0.1,0.3-0.4,0.5-0.7,0.7l-1,0.5c-0.1,0-0.2,0.1-0.3,0.1c-0.1,0-0.2,0.1-0.3,0.1c-0.1,0-0.2,0-0.2,0
				c-0.1,0-0.1,0-0.1-0.1c0,0,0-0.1,0-0.2C118.3,41.7,118.3,41.7,118.4,41.6z M119.4,41.1c0-0.1,0-0.2,0-0.3c0-0.1-0.1-0.3-0.1-0.4
				c-0.1-0.2-0.2-0.4-0.4-0.5s-0.3-0.1-0.5-0.1c-0.2,0.1-0.3,0.2-0.3,0.4c0,0.2,0.1,0.4,0.2,0.6c0.1,0.1,0.2,0.2,0.3,0.3
				s0.2,0.2,0.3,0.2L119.4,41.1z"/>
			<path class="st0" d="M124.1,48.6c0.1,0,0.2,0,0.2,0.1c0,0.1,0.1,0.1,0.1,0.2c0,0.1-0.1,0.2-0.1,0.2c-0.1,0-0.1,0.1-0.2,0.1
				l-3.8-0.5c-0.1,0-0.2,0-0.3-0.1c-0.1,0-0.2,0-0.3-0.1c-0.1,0-0.2-0.1-0.2-0.1c-0.1,0-0.1-0.1-0.1-0.2c0-0.1,0.1-0.1,0.3-0.2
				c0.2,0,0.4,0,0.7,0l0.9,0.1l1.3-1.3c0.1-0.1,0.1-0.2,0.2-0.3c0.1-0.1,0.1-0.2,0.2-0.3c0.1-0.1,0.1-0.2,0.2-0.3s0.2-0.1,0.2-0.1
				c0.1,0,0.1,0.1,0.1,0.2c0,0.1,0,0.2,0,0.2c0,0.2-0.1,0.3-0.2,0.5c-0.1,0.2-0.2,0.3-0.3,0.4l-1.1,1L124.1,48.6z"/>
			<path class="st0" d="M125.7,62c0.1,0,0.2-0.1,0.3-0.1c0.1-0.1,0.2-0.1,0.3-0.2c0.1-0.1,0.2-0.2,0.3-0.2c0.1,0,0.2,0,0.2,0
				c0,0,0.1,0.1,0.1,0.2c0,0.1,0,0.2-0.1,0.3c-0.1,0.1-0.2,0.3-0.4,0.4c-0.2,0.1-0.3,0.2-0.4,0.2l-1.6,0.4l2.2,0.5
				c0.1,0,0.2,0.1,0.2,0.1s0.1,0.1,0.1,0.2c0,0.1,0,0.1-0.1,0.2c0,0.1-0.1,0.1-0.2,0.1l-2.1,0.8l2.2,0.3c0.1,0,0.2,0.1,0.2,0.1
				c0,0.1,0.1,0.2,0,0.3c0,0.1,0,0.1-0.1,0.2c-0.1,0-0.2,0.1-0.3,0l-2.6-0.5c-0.1,0-0.1-0.1-0.2-0.1c0-0.1-0.1-0.2-0.1-0.2
				c0-0.1,0-0.2,0-0.2c0-0.1,0.1-0.1,0.1-0.1l1.9-0.8l-1.9-0.5c-0.1,0-0.1-0.1-0.2-0.1c0-0.1-0.1-0.1-0.1-0.2c0-0.1,0-0.2,0-0.3
				c0-0.1,0.1-0.1,0.1-0.1L125.7,62z"/>
			<path class="st0" d="M126.7,71.9c0.1,0,0.2,0,0.2,0.1s0.1,0.1,0.1,0.2c0,0.1,0,0.2-0.1,0.3c-0.1,0.1-0.1,0.1-0.2,0.1l-2.1-0.2
				c-0.1,0-0.2,0-0.3,0c-0.1,0-0.2,0-0.3-0.1c-0.1,0-0.2-0.1-0.2-0.1c-0.1,0-0.1-0.1-0.1-0.2c0-0.1,0.1-0.1,0.3-0.2
				c0.2,0,0.4,0,0.7,0L126.7,71.9z M128,72.7c-0.1,0-0.2-0.1-0.3-0.1c-0.1-0.1-0.1-0.2-0.1-0.3c0-0.1,0.1-0.2,0.1-0.3
				c0.1-0.1,0.2-0.1,0.3-0.1c0.1,0,0.2,0.1,0.3,0.1c0.1,0.1,0.1,0.2,0.1,0.3c0,0.1-0.1,0.2-0.1,0.3C128.2,72.7,128.1,72.7,128,72.7z
				"/>
			<path class="st0" d="M125.8,78.9l0,0.2l0.5,0.1c0.1,0,0.2,0,0.3,0c0.1,0,0.2,0,0.3,0c0.1,0,0.2-0.1,0.4-0.1c0.1,0,0.2,0,0.3,0.1
				c0,0.1,0,0.2,0,0.3c0,0.1-0.1,0.2-0.2,0.2c-0.1,0.1-0.3,0.1-0.4,0.2c-0.2,0-0.3,0-0.5,0l-0.7-0.2c0,0,0,0,0,0.1c0,0,0,0,0,0.1
				c0,0,0,0.1,0,0.1c0,0,0,0,0,0.1c0,0,0,0.1,0,0.1c0,0,0,0.1,0,0.1c0,0,0,0.1,0,0.1c0,0,0,0.1,0,0.1c0,0.1-0.1,0.2-0.1,0.2
				c-0.1,0-0.1,0-0.2,0c-0.1,0-0.2-0.1-0.2-0.1c0-0.1,0-0.1,0-0.2c0,0,0,0,0-0.1c0,0,0-0.1,0-0.1c0,0,0-0.1,0-0.1c0,0,0-0.1,0-0.2
				c0,0,0,0,0-0.1c0,0,0,0,0-0.1c0,0,0,0,0-0.1c0,0,0,0,0-0.1l-1.2-0.2c-0.2,0-0.4,0-0.5,0.1c-0.1,0.1-0.2,0.2-0.3,0.5
				c0,0.1,0,0.1-0.1,0.2s-0.1,0.1-0.2,0c-0.1,0-0.1-0.1-0.2-0.1c-0.1-0.1-0.1-0.1,0-0.2c0.1-0.3,0.1-0.5,0.2-0.6
				c0.1-0.1,0.2-0.3,0.4-0.3c0.1-0.1,0.3-0.1,0.5-0.1c0.2,0,0.4,0,0.6,0.1l0.9,0.2c0-0.1,0-0.1,0-0.2c0-0.1,0-0.1,0-0.2
				c0-0.1,0-0.2,0.1-0.2c0-0.1,0.1-0.1,0.2-0.1c0.1,0,0.1,0,0.2,0c0.1,0,0.1,0,0.2,0.1c0,0,0,0.1,0,0.1c0,0,0,0.1,0,0.2
				c0,0.1,0,0.1,0,0.2S125.8,78.9,125.8,78.9z"/>
			<path class="st0" d="M125.5,86.9c0,0.1,0,0.2,0,0.3c-0.1,0.1-0.1,0.1-0.2,0.2c-0.1,0.1-0.3,0.1-0.5,0.1s-0.3,0-0.5-0.1l-0.9-0.3
				c0.1,0.2,0.2,0.3,0.2,0.5c0,0.2,0,0.4,0,0.6c0,0.2-0.1,0.3-0.2,0.5s-0.2,0.2-0.4,0.3c-0.1,0.1-0.3,0.1-0.5,0.1
				c-0.2,0-0.4,0-0.5-0.1l-1.2-0.4c-0.1,0-0.2-0.1-0.2-0.1s-0.2-0.1-0.2-0.1c-0.1-0.1-0.1-0.1-0.2-0.2c0-0.1-0.1-0.1,0-0.2
				c0-0.1,0-0.1,0.1-0.1c0.1,0,0.1,0,0.2,0c0.1,0,0.2,0,0.2,0c0.1,0,0.1,0,0.2,0.1l1.1,0.4c0.2,0.1,0.4,0.1,0.6,0
				c0.2,0,0.3-0.2,0.4-0.4c0.1-0.2,0.1-0.4,0-0.6c-0.1-0.2-0.2-0.4-0.3-0.6l-1.1-0.4c-0.1,0-0.2-0.1-0.2-0.1s-0.2-0.1-0.2-0.1
				c-0.1,0-0.1-0.1-0.2-0.2c0-0.1-0.1-0.1,0-0.2c0-0.1,0-0.1,0.1-0.1c0.1,0,0.1,0,0.2,0c0.1,0,0.2,0,0.2,0c0.1,0,0.1,0,0.2,0.1
				l2.6,1c0.1,0,0.2,0,0.3,0.1c0.1,0,0.2,0,0.3,0c0.1,0,0.2,0,0.3,0S125.4,86.8,125.5,86.9z"/>
			<path class="st0" d="M115.5,102.9c0,0.1,0.1,0.2,0,0.2c0,0.1-0.1,0.1-0.2,0.2c-0.1,0-0.2,0.1-0.3,0s-0.1-0.1-0.2-0.1l-1.9-3.3
				c0-0.1-0.1-0.2-0.1-0.3c0-0.1-0.1-0.2-0.1-0.3c0-0.1,0-0.2,0-0.3c0-0.1,0-0.1,0.1-0.2c0.1,0,0.2,0,0.3,0.1s0.3,0.3,0.4,0.6
				l0.5,0.8l1.8,0.3c0.1,0,0.2,0,0.3,0c0.1,0,0.2,0,0.4,0c0.1,0,0.2,0,0.3,0c0.1,0,0.2,0.1,0.2,0.1c0,0.1,0,0.1-0.1,0.2
				c-0.1,0.1-0.1,0.1-0.2,0.2c-0.1,0.1-0.3,0.1-0.5,0.2c-0.2,0-0.3,0-0.5,0l-1.5-0.3L115.5,102.9z"/>
			<path class="st0" d="M110.6,106.7c0.2,0.2,0.3,0.3,0.4,0.5s0.2,0.4,0.2,0.6c0,0.2,0,0.4-0.1,0.6c-0.1,0.2-0.2,0.4-0.3,0.6
				c-0.2,0.2-0.3,0.3-0.5,0.4c-0.2,0.1-0.4,0.1-0.6,0.1c-0.2,0-0.4-0.1-0.6-0.2c-0.2-0.1-0.4-0.2-0.5-0.4c-0.2-0.2-0.3-0.3-0.4-0.5
				c-0.1-0.2-0.2-0.4-0.2-0.6c0-0.2,0-0.4,0.1-0.6c0.1-0.2,0.2-0.4,0.3-0.6c0.2-0.2,0.4-0.3,0.5-0.4c0.2-0.1,0.4-0.1,0.6-0.1
				c0.2,0,0.4,0.1,0.6,0.2C110.3,106.5,110.4,106.6,110.6,106.7z M110.2,107.2c-0.2-0.2-0.5-0.3-0.7-0.4c-0.2,0-0.5,0-0.7,0.3
				c-0.2,0.2-0.3,0.5-0.2,0.7s0.2,0.5,0.4,0.7c0.2,0.2,0.5,0.3,0.7,0.4c0.2,0,0.5,0,0.7-0.3c0.2-0.2,0.3-0.5,0.2-0.7
				C110.5,107.7,110.4,107.4,110.2,107.2z"/>
			<path class="st0" d="M102.8,115.7l-1.1-1.4c-0.2-0.3-0.3-0.6-0.2-1c0.1-0.3,0.3-0.6,0.6-0.9c0.3-0.3,0.6-0.4,1-0.4
				c0.3,0,0.6,0.1,0.9,0.5l0.5,0.6c0,0.1,0.1,0.1,0.2,0.2s0.2,0.1,0.2,0.2c0.1,0,0.2,0.1,0.3,0.2c0.1,0.1,0.2,0.2,0.1,0.3
				c0,0.1-0.1,0.2-0.2,0.2s-0.2,0.1-0.3,0c-0.2,0-0.3-0.1-0.5-0.2c-0.1-0.1-0.3-0.2-0.4-0.3l-0.5-0.7c-0.2-0.2-0.3-0.3-0.5-0.4
				c-0.2,0-0.4,0-0.6,0.2c-0.2,0.2-0.3,0.4-0.3,0.5c0,0.2,0.1,0.4,0.2,0.6l1,1.2c0.1,0.1,0.1,0.1,0.1,0.2c0,0.1-0.1,0.1-0.1,0.2
				c-0.1,0.1-0.2,0.1-0.2,0.1C102.9,115.8,102.9,115.8,102.8,115.7z"/>
		</g>
	</g>
</g>
</svg>
