<svg width="40" height="40" viewBox="0 0 40 40">
<path d="M20,1C9.5,1,1,9.5,1,20s8.5,19,19,19s19-8.5,19-19S30.5,1,20,1z M11.9,26.9C11.4,27,11,27,10.6,27.1
	c-0.6,0.1-1.2-0.3-1.5-0.8C8,24.4,7.4,22.3,7.4,20c0-7,5.7-12.7,12.8-12.6c5.3,0.1,10,3.5,11.7,8.4c0.2,0.6,0.1,1.2-0.3,1.7
	c-1.3,1.6-2.8,3-4.4,4.1V14c0-0.6-0.5-1.1-1.1-1.1h-1.8l0,0c-0.6,0-1.1,0.5-1.1,1.1v9.2c0,0.3-0.3,0.7-0.5,0.8
	c-0.4,0.2-0.8,0.3-0.8,0.3v-7.8c0-0.6-0.5-1.1-1.1-1.1h-1.8c-0.6,0-1.1,0.5-1.1,1.1V25c0,0.4-0.3,0.8-0.7,0.8
	C17,25.9,16.8,26,16.5,26v-6.8c0-0.6-0.5-1.1-1.1-1.1h-1.8l0,0c-0.6,0-1.1,0.5-1.1,1.1l0,0v6.7C12.7,26.5,12.3,26.9,11.9,26.9z
	 M30.2,27.4c-4.1,5.7-12,6.8-17.6,2.8l0,0l0,0l0,0c6.8-1,15.4-4.2,19.9-11.1c0,0.3,0,0.6,0,0.8C32.6,22.6,31.7,25.2,30.2,27.4z"/>
</svg>
