<svg width="40" height="40" viewBox="0 0 40 40">
<g>
	<circle cx="18.6" cy="27.5" r="0.9"/>
	<path d="M20,1C9.6,1,1,9.6,1,20s8.6,19,19,19s19-8.5,19-19S30.5,1,20,1z M31.3,23.3c-0.6,0-1.1-0.2-1.5-0.6l-8.6,4.8
		c0,1.4-1.1,2.5-2.5,2.5c-1.2,0-2.3-0.9-2.5-2.2l-8-4c-1.2-0.7-2.2-2.5-2.1-4.3c0.1-1.1,0.5-2,1.2-2.5c0.4-0.3,7.7-3.9,13.2-6.6
		l0.3-0.3c0.1-0.1,0.9-0.6,2,0c1.1,0.7,4,1.9,6.4,3c1.1,0.6,2.3,1.1,3,1.4c0,0,0.4,0.1,0.4,0.6c0,0.3-0.2,0.5-0.4,0.6L19,22.8
		c-0.8,0.4-1,0.3-1.4,0.1c-0.3-0.1-6.8-3.5-8.7-4.6l0,0c-0.2-0.1-0.5-0.1-0.7,0c-0.3,0.1-0.6,0.7-0.6,1.2c-0.1,1.1,0.6,2.5,1.3,2.9
		l7.5,4c0.4-0.9,1.2-1.4,2.2-1.4c0.9,0,1.6,0.4,2.1,1.1l8.4-4.5c-0.1-0.3-0.1-0.6-0.1-0.9c0-1.4,1.1-2.5,2.5-2.5
		c1.4,0,2.5,1.1,2.5,2.5C33.8,22.3,32.6,23.3,31.3,23.3z"/>
	<path d="M31.3,20c-0.5,0-0.9,0.4-0.9,0.9s0.4,0.9,0.9,0.9s0.9-0.4,0.9-0.9S31.8,20,31.3,20z"/>
</g>
</svg>
