<svg width="40" height="40" viewBox="0 0 40 40">
<g>
	<path d="M16.8,19c-0.9,0-1.7,0.9-1.7,2s0.8,2,1.7,2c1,0,1.7-0.9,1.7-2C18.6,19.9,17.7,19,16.8,19z"/>
	<path d="M23.2,19c-1,0-1.7,0.9-1.7,2s0.8,2,1.7,2s1.7-0.9,1.7-2S24.1,19,23.2,19z"/>
	<path d="M20,1C9.5,1,1,9.5,1,20s8.5,19,19,19s19-8.5,19-19S30.5,1,20,1z M31.2,25.1c-1.4,2.5-5.3,3.1-6.2,3.2l0,0
		c-0.2,0-0.3-0.1-0.4-0.2l-0.9-1.2c2.4-0.7,3.6-1.7,3.7-1.7c0.2-0.2,0.2-0.5,0-0.7s-0.5-0.2-0.7,0c0,0-2.3,2-6.7,2s-6.7-1.9-6.7-2
		c-0.2-0.2-0.5-0.2-0.7,0s-0.2,0.5,0,0.7c0.1,0.1,1.3,1.1,3.7,1.7l-0.9,1.2c-0.1,0.1-0.2,0.2-0.4,0.2l0,0c-0.9,0-4.8-0.7-6.2-3.2
		c0-0.1-0.1-0.2-0.1-0.3c0-4.8,2.1-10.4,3-11.3c2-1.6,5-1.8,5.2-1.9c0.2,0,0.4,0.1,0.5,0.3c0,0,0.1,0.2,0.1,0.4
		c-1.3,0.2-2.9,0.7-4.3,1.5c-0.2,0.1-0.3,0.5-0.2,0.7c0.1,0.2,0.5,0.3,0.7,0.2c2.5-1.5,5.5-1.6,6.1-1.6s3.7,0.1,6.2,1.6
		c0.1,0.1,0.2,0.1,0.3,0.1c0.2,0,0.3-0.1,0.4-0.2c0.1-0.2,0.1-0.6-0.2-0.7c-1.4-0.9-3-1.3-4.3-1.5c0.1-0.2,0.1-0.4,0.2-0.4
		c0.1-0.2,0.3-0.3,0.5-0.3c0.1,0,3.2,0.3,5.1,1.8c1,0.9,3.1,6.6,3.1,11.4C31.2,24.9,31.2,25,31.2,25.1z"/>
</g>
</svg>
