<svg width="40" height="40" viewBox="0 0 40 40">
<path d="M20,1C9.6,1,1,9.6,1,20s8.6,19,19,19s19-8.5,19-19S30.5,1,20,1z M29.7,16.2c0.3,6.4-4.5,13.5-13,13.5
	c-2.6,0-4.9-0.8-6.9-2.1c2.4,0.3,4.8-0.3,6.8-1.9c-2.1,0-3.6-1.4-4.3-3.1c0.8,0.2,1.4,0.2,2.1,0c-2.2-0.3-3.8-2.4-3.6-4.5
	c0.7,0.3,1.2,0.5,2.1,0.7c-2.1-1.4-2.6-4-1.4-6c2.2,2.7,5.5,4.6,9.3,4.8c-0.7-2.8,1.4-5.5,4.5-5.5c1.2,0,2.6,0.5,3.3,1.4
	c1.1-0.2,2.1-0.7,2.9-1.1c-0.3,1.1-1.1,1.9-2.1,2.6c0.9-0.2,1.7-0.3,2.6-0.8C31.2,14.8,30.5,15.5,29.7,16.2z"/>
</svg>
