<svg width="40" height="40" viewBox="0 0 40 40">
<path d="M20,1C9.6,1,1,9.6,1,20s8.6,19,19,19s19-8.5,19-19S30.5,1,20,1z M28.8,13.9c-0.3,3-1.5,10.3-2.2,13.7
	c-0.3,1.4-0.8,1.9-1.3,1.9c-1.1,0.1-1.9-0.8-3-1.4c-1.7-1-2.6-1.8-4.3-2.9c-1.9-1.2-0.7-1.9,0.4-3c0.3-0.3,5.1-4.8,5.2-5.1
	c0,0,0-0.2-0.1-0.3c-0.1-0.1-0.3-0.1-0.4,0c-0.2,0-2.8,1.8-8,5.3c-0.8,0.5-1.4,0.8-2.1,0.8s-2-0.4-2.9-0.7C9,21.8,8,21.6,8,21
	c0-0.4,0.5-0.7,1.4-1c5.5-2.4,9.2-4,11.1-4.7c5.2-2.2,6.4-2.6,7.1-2.6c0.2,0,0.5,0,0.8,0.2c0.2,0.2,0.2,0.4,0.3,0.5
	C28.8,13.4,28.8,13.6,28.8,13.9z"/>
</svg>
