<?xml version="1.0" encoding="utf-8"?>
<!-- Generator: Adobe Illustrator 26.2.1, SVG Export Plug-In . SVG Version: 6.00 Build 0)  -->
<svg version="1.1" id="Layer_1" xmlns="http://www.w3.org/2000/svg" xmlns:xlink="http://www.w3.org/1999/xlink" x="0px" y="0px"
	 viewBox="0 0 40 40" style="enable-background:new 0 0 40 40;" xml:space="preserve">
<path d="M20,0C9,0,0,9,0,20s9,20,20,20s20-9,20-20S31,0,20,0z M30.2,16c0.3,6.7-4.7,14.2-13.7,14.2c-2.7,0-5.2-0.8-7.3-2.2
	c2.5,0.3,5-0.3,7.2-2c-2.2,0-3.8-1.5-4.5-3.3c0.8,0.2,1.5,0.2,2.2,0c-2.3-0.3-4-2.5-3.8-4.7c0.7,0.3,1.3,0.5,2.2,0.7
	c-2.2-1.5-2.7-4.2-1.5-6.3c2.3,2.8,5.8,4.8,9.8,5c-0.7-3,1.5-5.8,4.7-5.8c1.3,0,2.7,0.5,3.5,1.5c1.2-0.2,2.2-0.7,3-1.2
	c-0.3,1.2-1.2,2-2.2,2.7c1-0.2,1.8-0.3,2.7-0.8C31.8,14.5,31,15.3,30.2,16z"/>
</svg>
