<?xml version="1.0" encoding="utf-8"?>
<!-- Generator: Adobe Illustrator 26.2.1, SVG Export Plug-In . SVG Version: 6.00 Build 0)  -->
<svg version="1.1" id="Layer_1" xmlns="http://www.w3.org/2000/svg" xmlns:xlink="http://www.w3.org/1999/xlink" x="0px" y="0px"
	 viewBox="0 0 40 40" style="enable-background:new 0 0 40 40;" xml:space="preserve">
<path d="M20,0C9,0,0,9,0,20s9,20,20,20s20-9,20-20S31.1,0,20,0z M9.9,20.7l0.1-0.1l5.2-8.1c0.1-0.1,0.3-0.1,0.3,0
	c0.9,2,1.6,4.4,1.3,5.9c-0.1,0.6-0.6,1.5-1,2.2c0,0.1-0.1,0.2-0.2,0.3c0,0-0.1,0.1-0.1,0.1h-5.3C9.9,20.9,9.8,20.8,9.9,20.7z
	 M33.1,23.5c0,0.1,0,0.1-0.1,0.2c-0.4,0.2-1.8,0.8-2.4,1.6c-1.5,2-2.6,4.9-5.1,4.9H15.1c-3.7,0-6.7-3-6.7-6.7v-0.1
	c0-0.1,0.1-0.2,0.2-0.2h5.8c0.1,0,0.2,0.1,0.2,0.2c0,0.4,0,0.8,0.2,1.1c0.4,0.7,1.1,1.2,1.8,1.2h2.9v-2.2h-2.8
	c-0.1,0-0.2-0.2-0.1-0.3c0,0,0-0.1,0.1-0.1c0.3-0.4,0.7-1,1-1.6c0.3-0.4,0.5-0.9,0.7-1.4c0-0.1,0.1-0.2,0.1-0.3
	c0-0.2,0.1-0.3,0.1-0.4c0-0.1,0.1-0.3,0.1-0.4c0.1-0.4,0.1-0.8,0.1-1.3c0-0.2,0-0.4,0-0.5c0-0.2,0-0.4,0-0.6c0-0.2,0-0.4-0.1-0.5
	c0-0.3-0.1-0.5-0.2-0.8l0-0.1c0-0.2-0.1-0.4-0.1-0.5c-0.2-0.6-0.4-1.1-0.5-1.6c-0.1-0.2-0.1-0.4-0.2-0.6c-0.1-0.3-0.2-0.6-0.4-0.8
	c0-0.1-0.1-0.2-0.2-0.3c0-0.1-0.1-0.2-0.2-0.4c0-0.1-0.1-0.2-0.1-0.3l-0.2-0.8c0-0.1,0-0.2,0.1-0.2l2.2,0.6l0,0l0,0l0.3,0.1l0.3,0.1
	l0.1,0V9.2C19.5,8.5,20,8,20.6,8c0.3,0,0.6,0.1,0.8,0.4c0.2,0.2,0.3,0.5,0.3,0.8v2l0.2,0c0,0,0,0,0,0c0,0,0.1,0.1,0.2,0.2
	c0.1,0,0.2,0.1,0.3,0.2c0.2,0.2,0.5,0.4,0.8,0.6c0.1,0,0.1,0.1,0.2,0.2c0.4,0.3,0.8,0.7,1.2,1.2c0.1,0.1,0.2,0.2,0.3,0.4
	c0.1,0.1,0.2,0.3,0.3,0.4c0.1,0.2,0.3,0.4,0.4,0.5c0,0.1,0.1,0.2,0.2,0.3c0.2,0.2,0.3,0.5,0.4,0.7c0,0.1,0.1,0.2,0.2,0.4
	c0.1,0.3,0.3,0.7,0.4,1c0,0.1,0,0.1,0,0.2l0,0c0,0.1,0,0.2,0,0.3c0,0.4,0,0.7,0,1c0,0.1-0.1,0.3-0.1,0.4c0,0.1-0.1,0.3-0.2,0.4
	c-0.1,0.3-0.3,0.6-0.4,0.8c0,0.1-0.1,0.2-0.2,0.3c-0.1,0.1-0.1,0.2-0.2,0.3c-0.1,0.1-0.2,0.3-0.3,0.4c-0.1,0.1-0.2,0.2-0.3,0.4
	c-0.1,0.2-0.3,0.3-0.4,0.4c-0.1,0.1-0.2,0.2-0.3,0.3c-0.1,0.1-0.2,0.2-0.3,0.3c-0.1,0.1-0.3,0.2-0.4,0.4l-0.2,0.2c0,0-0.1,0-0.1,0
	h-1.7v2.2H24c0.5,0,1-0.2,1.3-0.5c0.1-0.1,0.7-0.6,1.4-1.3c0,0,0,0,0.1,0l6.1-1.8c0.1,0,0.2,0,0.2,0.2L33.1,23.5L33.1,23.5z"/>
</svg>
