<svg width="16" height="16" viewBox="0 0 16 16" fill="none" xmlns="http://www.w3.org/2000/svg">
<path d="M8.00003 9.47558C8.15326 9.47558 8.30022 9.41471 8.40858 9.30635C8.51693 9.198 8.5778 9.05104 8.5778 8.8978V6.22225C8.5778 6.06901 8.51693 5.92205 8.40858 5.8137C8.30022 5.70534 8.15326 5.64447 8.00003 5.64447C7.84679 5.64447 7.69983 5.70534 7.59148 5.8137C7.48312 5.92205 7.42225 6.06901 7.42225 6.22225V8.88891C7.42107 8.96553 7.43514 9.04162 7.46365 9.11275C7.49216 9.18388 7.53453 9.24863 7.5883 9.30322C7.64207 9.35782 7.70616 9.40118 7.77685 9.43077C7.84753 9.46036 7.9234 9.47559 8.00003 9.47558V9.47558Z" fill="#3c3c3c"/>
<path d="M7.97776 11.4533C8.34595 11.4533 8.64443 11.1549 8.64443 10.7867C8.64443 10.4185 8.34595 10.12 7.97776 10.12C7.60957 10.12 7.3111 10.4185 7.3111 10.7867C7.3111 11.1549 7.60957 11.4533 7.97776 11.4533Z" fill="#3c3c3c"/>
<path d="M13.48 11.3511L9.15113 3.37776C9.03652 3.16719 8.86726 2.99141 8.66116 2.86894C8.45506 2.74646 8.21976 2.68182 7.98002 2.68182C7.74028 2.68182 7.50497 2.74646 7.29887 2.86894C7.09278 2.99141 6.92351 3.16719 6.8089 3.37776L2.47557 11.3511C2.36215 11.5547 2.30407 11.7844 2.30712 12.0175C2.31017 12.2505 2.37424 12.4786 2.49295 12.6792C2.61166 12.8797 2.78086 13.0457 2.98368 13.1604C3.1865 13.2752 3.41586 13.3348 3.64891 13.3333H12.3067C12.5378 13.3335 12.765 13.2737 12.966 13.1596C13.1671 13.0455 13.335 12.8811 13.4533 12.6826C13.5716 12.484 13.6363 12.2581 13.641 12.027C13.6457 11.7959 13.5902 11.5676 13.48 11.3644V11.3511ZM12.6889 12.2133C12.6496 12.2797 12.5936 12.3346 12.5266 12.3728C12.4596 12.411 12.3838 12.4311 12.3067 12.4311H3.64891C3.57165 12.4313 3.49567 12.4114 3.42847 12.3733C3.36127 12.3352 3.30516 12.2802 3.26567 12.2138C3.22619 12.1474 3.2047 12.0718 3.20332 11.9946C3.20194 11.9174 3.22071 11.8411 3.25779 11.7733L7.58668 3.79998C7.62476 3.72942 7.68122 3.67048 7.75008 3.6294C7.81893 3.58832 7.89762 3.56664 7.97779 3.56664C8.05797 3.56664 8.13666 3.58832 8.20551 3.6294C8.27436 3.67048 8.33082 3.72942 8.36891 3.79998L12.6978 11.7733C12.7346 11.8411 12.7532 11.9173 12.7516 11.9945C12.7501 12.0716 12.7285 12.1471 12.6889 12.2133V12.2133Z" fill="#3c3c3c"/>
</svg>
