<svg width="32" height="32" viewBox="0 0 32 32" fill="none" xmlns="http://www.w3.org/2000/svg">
<path d="M22.6681 26.6667H8.00138C7.29414 26.6667 6.61586 26.3858 6.11577 25.8857C5.61567 25.3856 5.33472 24.7073 5.33472 24V9.33337C5.33472 8.62613 5.61567 7.94785 6.11577 7.44776C6.61586 6.94766 7.29414 6.66671 8.00138 6.66671H13.3347V9.33337H8.00138V24H22.6681V18.6667H25.3347V24C25.3347 24.7073 25.0538 25.3856 24.5537 25.8857C24.0536 26.3858 23.3753 26.6667 22.6681 26.6667ZM15.6014 18.276L13.7214 16.3907L22.1121 8.00004H17.3347V5.33337H26.6681V14.6667H24.0014V9.88671L15.6014 18.276V18.276Z" fill="#F5F5F5"/>
</svg>
